<?xml version="1.0" encoding="utf-8"?>
<!-- Generator: Adobe Illustrator 19.0.0, SVG Export Plug-In . SVG Version: 6.00 Build 0)  -->
<svg version="1.1" xmlns="http://www.w3.org/2000/svg" xmlns:xlink="http://www.w3.org/1999/xlink" x="0px" y="0px"
	 viewBox="0 0 100 100" style="enable-background:new 0 0 100 100;" xml:space="preserve">
<style type="text/css">
	.st0{fill:none;}
	.st1{fill:#E6E7E8;}
	.st2{fill-rule:evenodd;clip-rule:evenodd;fill:#E06616;stroke:#000000;stroke-width:0.5669;stroke-miterlimit:22.9256;}
	.st3{fill-rule:evenodd;clip-rule:evenodd;stroke:#000000;stroke-width:0.5669;stroke-miterlimit:22.9256;}
	.st4{fill-rule:evenodd;clip-rule:evenodd;fill:none;stroke:#2E2E2D;stroke-width:0.5669;stroke-miterlimit:22.9256;}
	.st5{fill:#E06616;}
	
		.st6{fill-rule:evenodd;clip-rule:evenodd;fill:none;stroke:#000000;stroke-width:0.4252;stroke-linejoin:bevel;stroke-miterlimit:22.9256;}
	.st7{fill-rule:evenodd;clip-rule:evenodd;fill:url(#SVGID_1_);}
</style>
<pattern  x="-403" y="379.5" width="0" height="0" patternUnits="userSpaceOnUse" id="VectorFill_3" viewBox="8564.5 1373.1 0 0" style="overflow:visible;">
	<g>
		<polygon class="st0" points="8564.5,1373.1 8564.5,1373.1 8564.5,1373.1 8564.5,1373.1 		"/>
		<polygon class="st0" points="8564.5,1373.1 8564.5,1373.1 8564.5,1373.1 8564.5,1373.1 		"/>
		<polygon class="st0" points="8564.5,1373.1 8564.5,1373.1 8564.5,1373.1 8564.5,1373.1 		"/>
	</g>
</pattern>
<g id="Guides_For_Artboard">
</g>
<g id="Layer_1">
	<rect class="st1" width="100" height="100"/>
	<g>
		<path class="st2" d="M64,52.4c1.2-0.7,2-2,2-3.5v0V33.6c-1.2-6.7-6.3-12-13-13.3c-6.6-1.3-13.4,1.5-17.1,7.2
			c-3.7,5.7-3.5,13.1,0.4,18.6c4,5.5,10.9,8,17.5,6.4c1.8-0.8,2.7-2.8,2.2-4.7c-0.5-1.9-2.2-3.2-4.2-3.1c-3.4,0.9-6.9-0.4-9-3.2
			c-2-2.8-2.1-6.6-0.2-9.5c1.9-2.9,5.5-4.3,8.9-3.5c3.4,0.8,5.9,3.6,6.4,7v13.5v0c0,1.4,0.8,2.7,2,3.5C61.2,53.1,62.7,53.1,64,52.4z
			"/>
		<path class="st3" d="M22.2,52.1V22.6c0-3.5,1.4-6.8,3.8-9.2c2.4-2.4,5.8-3.8,9.2-3.8h29.5c3.5,0,6.8,1.4,9.2,3.8
			c2.4,2.4,3.8,5.8,3.8,9.2v29.5c0,7.2-5.8,13.1-13.1,13.1H35.3c-3.5,0-6.8-1.4-9.2-3.8C23.6,58.8,22.2,55.5,22.2,52.1L22.2,52.1z
			 M79.7,52.1V22.6c0-4-1.6-7.8-4.4-10.5c-2.8-2.8-6.6-4.4-10.5-4.4H35.3c-4,0-7.8,1.6-10.5,4.4s-4.4,6.6-4.4,10.5v29.5
			c0,4,1.6,7.8,4.4,10.5c2.8,2.8,6.6,4.4,10.5,4.4h29.5C73,67,79.7,60.3,79.7,52.1z"/>
		<rect x="35.3" y="7.3" width="29.5" height="0.7"/>
		<path d="M20.7,22.6H20c0-4.1,1.6-7.9,4.5-10.8c2.9-2.9,6.7-4.5,10.8-4.5V8c-3.9,0-7.6,1.5-10.3,4.3C22.2,15,20.7,18.7,20.7,22.6z"
			/>
		<path d="M22.6,22.6h-0.7c0-3.6,1.4-6.9,3.9-9.5c2.5-2.5,5.9-3.9,9.5-3.9v0.7c-3.4,0-6.6,1.3-9,3.7C23.9,16,22.6,19.2,22.6,22.6z"
			/>
		<rect x="79.3" y="22.6" width="0.7" height="29.5"/>
		<rect x="79.3" y="22.6" width="0.7" height="29.5"/>
		<rect x="77.4" y="22.6" width="0.7" height="29.5"/>
		<rect x="20" y="22.6" width="0.7" height="29.5"/>
		<rect x="21.9" y="22.6" width="0.7" height="29.5"/>
		<path d="M64.7,67.3v-0.7c8,0,14.6-6.5,14.6-14.6H80C80,60.5,73.2,67.3,64.7,67.3z"/>
		<path d="M64.7,65.5v-0.7c7,0,12.7-5.7,12.7-12.7h0.7C78.1,59.4,72.1,65.5,64.7,65.5z"/>
		<path d="M80,22.6h-0.7c0-3.9-1.5-7.6-4.3-10.3C72.3,9.5,68.6,8,64.7,8V7.3c4.1,0,7.9,1.6,10.8,4.5C78.4,14.7,80,18.5,80,22.6z"/>
		<path d="M78.1,22.6h-0.7c0-3.4-1.3-6.6-3.7-9c-2.4-2.4-5.6-3.7-9-3.7V9.2c3.6,0,6.9,1.4,9.5,3.9C76.7,15.6,78.1,19,78.1,22.6z"/>
		<path d="M35.3,67.3c-4.1,0-7.9-1.6-10.8-4.5C21.6,60,20,56.1,20,52.1h0.7c0,3.9,1.5,7.6,4.3,10.3c2.8,2.8,6.4,4.3,10.3,4.3V67.3z"
			/>
		<rect x="35.3" y="66.6" width="29.5" height="0.7"/>
		<rect x="35.3" y="64.8" width="29.5" height="0.7"/>
		<rect x="35.3" y="9.2" width="29.5" height="0.7"/>
		<path d="M35.3,65.5c-3.6,0-6.9-1.4-9.5-3.9c-2.5-2.5-3.9-5.9-3.9-9.5h0.7c0,3.4,1.3,6.6,3.7,9c2.4,2.4,5.6,3.7,9,3.7V65.5z"/>
		<rect x="35.3" y="7.3" width="29.5" height="0.7"/>
		<rect x="65.7" y="33.5" width="0.7" height="15.4"/>
		<path d="M49.7,45.2c-2.8,0-5.5-1.3-7.1-3.6c-2.1-2.9-2.2-6.9-0.2-9.9c2-3,5.7-4.5,9.2-3.6c3.5,0.8,6.2,3.8,6.7,7.3l-0.7,0.1
			c-0.4-3.3-2.9-6-6.1-6.8c-3.2-0.8-6.6,0.6-8.5,3.4c-1.8,2.8-1.8,6.4,0.1,9.1c1.9,2.7,5.4,3.9,8.6,3.1l0.2,0.7
			C51.2,45.1,50.4,45.2,49.7,45.2z"/>
		<path d="M62,53.2c-0.8,0-1.5-0.2-2.2-0.6c-1.4-0.8-2.2-2.2-2.2-3.8l0.7,0c0,1.3,0.7,2.5,1.8,3.2c1.1,0.7,2.6,0.7,3.7,0
			c1.1-0.7,1.8-1.9,1.8-3.2l0.7,0c0,1.6-0.8,3-2.2,3.8C63.5,53,62.7,53.2,62,53.2z"/>
		<path d="M53.9,52.7l-0.3-0.6c1.6-0.8,2.5-2.6,2-4.3c-0.4-1.7-2.1-2.9-3.8-2.8l0-0.7c0.1,0,0.1,0,0.2,0c2,0,3.8,1.4,4.3,3.4
			C56.9,49.6,55.9,51.8,53.9,52.7z"/>
		<rect x="57.6" y="35.4" width="0.7" height="13.5"/>
		<path d="M49.7,53.3c-5.3,0-10.4-2.5-13.6-7c-4.1-5.7-4.2-13.1-0.5-19c3.8-5.9,10.7-8.7,17.5-7.4c6.8,1.4,12,6.7,13.3,13.6
			l-0.7,0.1c-1.2-6.6-6.2-11.7-12.7-13c-6.6-1.3-13.1,1.4-16.8,7.1c-3.6,5.6-3.5,12.8,0.4,18.2c3.9,5.4,10.6,7.9,17.1,6.3l0.2,0.7
			C52.5,53.1,51.1,53.3,49.7,53.3z"/>
	</g>
	<g>
		<line class="st4" x1="55.6" y1="82.7" x2="55.6" y2="82.7"/>
		<path class="st5" d="M21.4,87.1c-0.1-0.4-0.1-0.6-0.1-0.9c0-0.1,0-0.2,0-0.4l0-0.1c0-0.2,0-0.7,0-1c0-0.1,0-0.2,0-0.2H22
			c0,0,0,0.1,0,0.2c0,0.7,0,1,0,1.2c0,0.1,0,0.2,0,0.3c0,0.2,0,0.4,0,0.7L21.4,87.1z"/>
		<path class="st5" d="M21.4,84.5c0-0.1,0-0.3,0-0.4l0-0.2H22l0,0.2c0,0.1,0,0.3,0,0.4L21.4,84.5z"/>
		<path class="st5" d="M21.5,84.7c0-0.1,0-0.2,0-0.4c0-0.3,0-0.6-0.1-1c0-0.1,0-0.2,0-0.3l0.5,0.1C22,83.6,22,84,22,84.3
			c0,0.1,0,0.2,0,0.3L21.5,84.7z"/>
		<path class="st5" d="M19.9,84.1h-0.6l0-0.1c0-0.5,0-1.7,1-1.8c0.7-0.1,1,0.1,1.3,0.4c0.1,0,0.1,0.1,0.2,0.1l-0.4,0.5
			c-0.1-0.1-0.2-0.1-0.2-0.2c-0.3-0.2-0.4-0.3-0.9-0.3c-0.4,0.1-0.5,0.4-0.5,1.2L19.9,84.1z"/>
		<path class="st5" d="M21.9,83.3l-0.3-0.1c0-0.1,0-0.1,0-0.1c0,0-0.1-0.1-0.1-0.2l0.1-0.1l-0.1,0l0.1-0.6l0.2,0.5
			c0,0,0,0.1,0.1,0.1C21.9,83.1,22,83.1,21.9,83.3z"/>
		<path class="st5" d="M21.6,83.3c-0.3-0.3-0.3-0.4-0.3-0.5c0,0,0.1-0.1,0.2-0.1c0.1,0.1,0.2,0.3,0.2,0.3l0,0c0,0,0,0,0.1,0.1
			L21.6,83.3z"/>
		<path class="st5" d="M19.9,86.9h-0.6c0-0.1,0-0.4,0-0.7c-0.1-1.8-0.1-2.3,0.1-2.5l0.5,0.4c0,0,0-0.1,0-0.1c-0.1,0.2,0,1.5,0,2.1
			C19.9,86.5,19.9,86.7,19.9,86.9z"/>
		<path class="st5" d="M25.5,93.6c-0.8,0-1.6-0.3-1.9-0.4c-1.1-0.4-2.1-1.2-3-2.2c-1.1-1.3-1.3-3.1-1.3-3.8l0.6,0
			c0.1,1.4,0.5,2.7,1.2,3.4c0.8,0.9,1.8,1.7,2.8,2c0.8,0.3,1.9,0.5,2.4,0.2c0.2-0.1,0.3-0.3,0.3-0.6c0-0.5-0.6-0.7-1.6-0.9
			c-0.8-0.2-1.7-0.4-2.1-1c-0.1-0.1-0.2-0.2-0.3-0.4c-0.4-0.5-0.8-1.1-0.9-1.6c0,0,0-0.1,0-0.2c-0.2-0.8-0.2-1.2-0.1-1.4l0.5,0.4
			c0,0,0-0.1,0-0.1c0,0.2,0.1,0.8,0.2,1c0,0.1,0,0.2,0.1,0.3c0.1,0.4,0.5,1,0.8,1.3c0.1,0.2,0.2,0.3,0.3,0.4c0.3,0.4,1,0.6,1.7,0.7
			c1,0.2,2.2,0.5,2.2,1.6c0,0.7-0.3,1-0.6,1.2C26.3,93.5,25.9,93.6,25.5,93.6z"/>
		<path class="st5" d="M19.2,87.4c0-0.3,0-0.4,0.1-0.6c0-0.1,0-0.1,0-0.2H20c0,0.2,0,0.4-0.1,0.5c0,0.1-0.1,0.1-0.1,0.3L19.2,87.4z"
			/>
		<path d="M25.8,91.5c-0.4,0-0.8-0.1-1.2-0.2c-0.2,0-0.3-0.1-0.5-0.2c-0.2-0.1-0.3-0.1-0.5-0.2c-1.4-0.8-2.3-2.2-2.3-3.8l0.3,0
			c0.1,1.5,0.9,2.8,2.2,3.6c0.2,0.1,0.3,0.2,0.5,0.2c0.2,0.1,0.3,0.1,0.5,0.2c0.4,0.1,0.7,0.1,1.1,0.1L25.8,91.5z"/>
		<path class="st5" d="M40.7,90.6H40c0-0.3,0-0.5,0.1-0.8c0.1-0.4,0.2-0.8-0.1-1.5c-0.1-0.2,0-0.3,0-0.5c0.1-0.3,0.2-0.8,0.1-1.4
			c0-0.1,0-1,0-1h0.7c0,0.1,0,0.7,0,0.8c0.2,0.7,0,1.4-0.1,1.7c0,0.1,0,0.1,0,0.2c0.3,0.9,0.2,1.4,0.1,1.8
			C40.7,90.2,40.7,90.4,40.7,90.6z"/>
		<path class="st5" d="M40.7,85.3l-0.6-0.2l0.3,0.1l-0.3,0c0-0.2,0-2.3,0-6.2l0-0.4h0.6l0,0.4C40.7,85.2,40.7,85.3,40.7,85.3z"/>
		<path class="st5" d="M40.7,85.9l-0.6-0.2c0-0.1,0-0.6,0-0.7c0,0,0,0.1,0.1,0.1l0.3-0.6C40.9,84.9,40.7,85.9,40.7,85.9z"/>
		<path class="st5" d="M40.1,78.8c0-0.1,0-0.3,0-0.6c-0.1-4,0-4.4,0.2-4.6c0.6-0.6,1.1-1.2,2.1-0.4c0.6,0.4,0.6,1.7,0.5,3
			c0,0.2,0,0.3,0,0.5h-0.6c0-0.1,0-0.3,0-0.5c0-0.6,0.1-2.2-0.3-2.4c-0.6-0.5-0.7-0.3-1.2,0.3c-0.1,0.5-0.1,3.2,0,4.2
			c0,0.3,0,0.5,0,0.6L40.1,78.8z"/>
		<path class="st5" d="M42.5,83.8l-0.2-0.2c0-0.1-0.3-7.1,0.1-7.6l0.2,0.2l0.3,0.1c-0.1,0.5-0.1,6.5,0,7.1l-0.3,0.1L42.5,83.8z"/>
		<path class="st5" d="M42.6,83.9l-0.4-0.2l0.1-0.3c0.1-0.1,0.5-0.6,0.8-0.7l0.2,0.5c-0.2,0.1-0.4,0.3-0.6,0.5L42.6,83.9z"/>
		<path class="st5" d="M48.9,83.8c-0.1,0-0.1,0-1-0.5l-0.1-0.1c-1.2-0.6-1.2-0.6-1.6-0.5c-0.2,0-0.6,0.1-1.2,0.1
			c-0.7,0-1.2,0.2-1.5,0.4c-0.2,0.1-0.3,0.2-0.5,0.1l0-0.3l0-0.3c0,0,0.1-0.1,0.2-0.1c0.3-0.2,0.9-0.4,1.8-0.4
			c0.6,0,0.9-0.1,1.1-0.1c0.6-0.1,0.7,0,2,0.6l0.1,0.1c0.2,0.1,0.7,0.4,0.8,0.4L49,83.4L48.9,83.8z"/>
		<path class="st5" d="M51.3,89h-0.6c0-0.1,0-0.3,0-0.4c0-0.1,0-0.2,0-0.2c0-0.3,0-0.5,0-0.7c0-0.5,0-0.6-0.2-1.6
			c-0.1-0.4-1.4-2.4-1.8-2.5c0,0,0,0,0.1,0L48.6,83c0.1,0,0.3,0,0.4,0.1c0.6,0.4,1.9,2.3,2,2.9c0.2,1,0.2,1.1,0.2,1.7
			c0,0.2,0,0.4,0,0.7c0,0,0,0,0,0.1C51.3,88.7,51.3,88.9,51.3,89z"/>
		<path class="st5" d="M49,86.4l-0.6,0c0-0.1-0.4-0.4-0.6-0.6c-0.2-0.1-0.3-0.3-0.4-0.4c-0.1-0.2-0.6-0.4-1.9-0.4v-0.6
			c1.2,0,1.9,0.2,2.3,0.6c0.1,0.1,0.3,0.2,0.4,0.4C48.6,85.6,49,86,49,86.4z"/>
		<path class="st5" d="M42.2,88.8c-0.1-0.2,0-1.5,0-1.5c0.2-0.6,0.2-0.6,0.3-0.8c0-0.1,0.1-0.2,0.2-0.5c0.4-1,1.7-1.8,2.9-1.8v0.6
			c-1,0-2,0.6-2.3,1.4c-0.1,0.3-0.2,0.4-0.2,0.5c-0.1,0.1-0.1,0.2-0.3,0.7c0,0.1,0,1,0,1.1l-0.3,0L42.2,88.8z"/>
		<path class="st5" d="M41.2,93.5c-0.3,0-0.5-0.1-0.7-0.2c-0.6-0.5-0.5-1.4-0.4-2.3c0-0.2,0-0.5,0-0.7h0.6c0,0.2,0,0.5,0,0.7
			c-0.1,0.6-0.1,1.5,0.2,1.7c0.2,0.2,0.6,0.1,0.9,0c0.3-0.1,0.3-0.1,0.3-0.2c0-0.1,0-0.2,0-0.3c0.2-0.5,0.1-1.4,0.1-2.2
			c0-0.6-0.1-1.3,0-1.7l0.6,0.1c-0.1,0.3,0,0.9,0,1.5c0.1,0.9,0.1,1.8-0.1,2.5c0,0,0,0,0,0.1c0,0.4-0.1,0.6-0.8,0.8
			C41.7,93.4,41.4,93.5,41.2,93.5z"/>
		<path class="st5" d="M55.1,88.9l-0.6,0l0-0.1l-0.1-0.6c-0.1-0.9-0.2-1.8-0.2-2.9c0-2.1,0.2-2.5,0.6-2.8c0.1-0.1,0.2-0.1,0.2-0.3
			l0.6,0.2c-0.1,0.3-0.3,0.4-0.4,0.5c-0.2,0.1-0.4,0.3-0.4,2.2c0,1.1,0.1,1.9,0.2,2.8L55.1,88.9z"/>
		<path class="st5" d="M60.1,93.6c-0.1,0-0.2,0-0.3,0c-0.9-0.1-2.2-0.7-3-1.4c-1.5-1.2-1.7-1.6-2.3-3.4l0.6-0.3l0,0.1
			c0.6,1.7,0.7,2,2.1,3.1c0.8,0.6,1.9,1.1,2.7,1.3c0.4,0.1,0.8-0.1,1.1-0.3c0.1-0.1,0.2-0.2,0.2-0.4c0-0.7-0.4-0.8-1.2-1
			c-0.4-0.1-0.9-0.2-1.3-0.5l0,0c-0.6-0.4-1.8-1.1-1.8-2l0-0.1l0.1-0.1c0.2-0.2,0.5-0.2,1.5-0.2c0.5,0,1,0,1.2,0c0.1,0,0.3,0,0.5,0
			c0.4,0,0.9,0,1.1-0.3c0.1-0.1,0.1-0.2,0.1-0.4c0,0,0,0,0,0c-0.1-0.1-0.3-0.5-0.5-0.6c-0.4-0.3-2.1-0.1-2.9-0.1c-0.2,0-0.3,0-0.4,0
			l0-0.6c0.1,0,0.2,0,0.4,0c1.3-0.1,2.7-0.2,3.3,0.2c0.4,0.2,0.7,0.7,0.8,0.9l0.1,0l0,0.2c0.1,0.4,0,0.7-0.2,1
			c-0.4,0.5-1.1,0.5-1.6,0.5c-0.1,0-0.3,0-0.3,0c-0.3,0.1-0.9,0.1-1.4,0c-0.3,0-0.7,0-0.9,0c0.2,0.5,1,1,1.5,1.3l0.1,0
			c0.4,0.2,0.8,0.3,1.2,0.4c0.8,0.2,1.6,0.4,1.7,1.6c0,0.4-0.1,0.7-0.4,0.9C61,93.4,60.5,93.6,60.1,93.6z"/>
		<path class="st5" d="M57.5,86.8c-0.7-0.1-1.2-0.8-1.1-1.5c0-0.3,0.3-1.1,2-1.1c0.4,0,0.9,0,1.3-0.1c0.4,0,0.8,0,1.1,0v0.6
			c-0.3,0-0.7,0-1.1,0c-0.4,0-0.9,0.1-1.3,0.1c-0.8,0-1.3,0.2-1.4,0.6c0,0.3,0.3,0.7,0.6,0.8L57.5,86.8z"/>
		<path class="st5" d="M60.7,84.8l-0.3-0.6c0.1,0,0.2-0.1,0.3-0.1c0.3-0.1,0.4-0.2,0.4-0.4c0.1-0.4,0.1-0.7-0.2-0.9
			c-0.3-0.2-0.9-0.2-1.3-0.2l-0.1-0.6c0.5,0,1.2-0.1,1.7,0.3c0.6,0.5,0.5,1.1,0.5,1.5c-0.1,0.6-0.5,0.8-0.8,0.9
			C60.9,84.8,60.8,84.8,60.7,84.8z"/>
		<path class="st5" d="M54.8,83.1c-0.3,0-0.3-0.2-0.4-0.3l0,0l0,0c0-0.1,0-0.3,0.1-0.4C55,82,56,82,58.2,82.1c0.6,0,1.3,0,1.5,0
			l0.2,0.6c-0.2,0.1-0.6,0.1-1.7,0c-0.9,0-2.7-0.1-3.1,0.1l0,0.1L54.9,83l-0.1-0.1L54.8,83.1z"/>
		<path class="st5" d="M57.3,89.8c0,0-0.1-0.1-0.1-0.3c-0.1-0.2-0.2-0.3-0.3-0.5l0.6-0.3c0.1,0.1,0.2,0.3,0.2,0.4
			c0.1,0.1,0.2,0.3,0.2,0.3L57.3,89.8l0.3-0.1L57.3,89.8z"/>
		<path class="st5" d="M57.1,89.2c0-0.1-0.3-0.3-0.4-0.5c-0.2-0.2-0.2-0.2-0.2-0.3l0.2,0l0.1-0.1c0,0,0.1,0.1,0.2,0.2
			c0.4,0.5,0.4,0.5,0.5,0.6L57.1,89.2l0.1-0.1L57.1,89.2z"/>
		<path class="st5" d="M42.4,83.9l-0.2,0c0-0.1,0-0.1,0.1-0.1c0,0,0,0,0,0c0.1-0.2,0.1-0.2,0.2-0.3c0,0,0.1-0.1,0.1-0.2l0.1,0.1
			c-0.1,0.1-0.1,0.1-0.1,0.2c0,0-0.1,0.1-0.1,0.2C42.5,83.8,42.4,83.8,42.4,83.9C42.4,83.9,42.4,83.9,42.4,83.9z"/>
		<path class="st5" d="M42.9,83.1c0,0-0.2-0.2-0.3-0.2l0.2-0.3c0,0,0.3,0.3,0.3,0.3L43,83L42.9,83.1z"/>
		<path class="st5" d="M30.3,87.7h-0.7c0-0.6,0-1.2,0-1.7c0-1.6,0-3.2-0.1-5c0-0.5,0-2.5,0.1-3.8l0-0.9l0.7,0l0,0.9
			c0,1.2-0.1,3.3-0.1,3.7c0.1,1.8,0.1,3.4,0.1,5C30.3,86.5,30.3,87.1,30.3,87.7z"/>
		<path class="st5" d="M32.5,77.1l-0.6,0l0-0.2c0-0.1,0-0.3,0-0.4c0-0.4,0-0.7,0-1c0-0.7,0.1-1.2-0.3-1.8c-0.4-0.1-0.7-0.2-0.9-0.1
			c-0.1,0-0.1,0.1-0.1,0.2c-0.1,0.4-0.1,0.4-0.1,0.7c0,0.1,0,0.2,0,0.4l0,0.2l0,0c0,0.4-0.1,1.2-0.1,1.3l-0.2,0l-0.4,0.3
			c-0.2-0.3,0-1.6,0-1.9c0-0.2,0-0.3,0-0.4c0-0.3,0-0.4,0.2-0.9c0.1-0.3,0.3-0.4,0.5-0.6c0.4-0.2,0.9-0.1,1.5,0.1l0.1,0l0.1,0.2
			c0.5,0.9,0.5,1.5,0.5,2.3c0,0.3,0,0.6,0,1c0,0.2,0,0.3,0,0.4L32.5,77.1z"/>
		<path class="st5" d="M36.3,80.8h-0.6c0,0,0-0.2,0-0.2l0-0.1c0-0.2-0.3-0.4-0.4-0.4c-0.2,0-0.3,0-0.5,0c-0.6,0-1.3-0.1-1.8-0.4
			c-0.7-0.4-1-1.3-1-1.7c0-0.2-0.2-0.9,0.1-1.3l0.5,0.4c-0.1,0.2,0,1.6,0.7,2c0.4,0.2,1,0.2,1.5,0.3c0.2,0,0.3,0,0.5,0
			c0.4,0,0.8,0.5,1,0.9C36.3,80.4,36.3,80.6,36.3,80.8z"/>
		<path class="st5" d="M32,83.9c-0.1-0.3,0-0.7,0-1.3c0-0.1,0-0.3,0-0.3l0-0.2l0.1-0.1c0,0,0.1-0.1,0.2-0.2c0.7-0.5,1.3-0.4,1.8-0.3
			c0.2,0,0.4,0,0.6,0c0.8-0.2,0.8-0.2,0.9-0.7l0-0.2l0.6,0.1l0,0.2c-0.1,0.8-0.3,0.9-1.3,1.2c-0.2,0.1-0.5,0-0.8,0
			c-0.4,0-0.9-0.1-1.4,0.3c0,0,0,0,0,0c0,0.1,0,0.2,0,0.3c0,0.3-0.1,0.8-0.1,1L32,83.9z"/>
		<path class="st5" d="M32.3,88.8L32.3,88.8C31.8,88,31.9,86.4,32,85c0-0.5,0-1.2,0-1.3c0,0,0,0.1,0.1,0.1l0.3-0.5
			c0.3,0.2,0.3,0.5,0.2,1.8c0,1.1-0.1,2.8,0.2,3.4L32.3,88.8z"/>
		<path class="st5" d="M36.7,92.2c0-0.6-0.2-0.7-0.8-0.8c-0.2-0.1-0.9-0.2-1-0.3c-0.4,0-0.9-0.3-1.5-0.8l-0.1,0l-0.1-0.1
			c-0.1-0.2-0.2-0.4-0.4-0.5c-0.2-0.3-0.5-0.6-0.7-1.2l0.6-0.2c0.1,0.5,0.3,0.7,0.5,0.9c0.1,0.2,0.3,0.3,0.4,0.6
			c0.8,0.7,1.1,0.7,1.2,0.7c0,0,0,0,0,0c0.1,0,0.1,0,1.1,0.3c0.7,0.2,1.3,0.4,1.3,1.5L36.7,92.2z"/>
		<path class="st5" d="M35.8,93.5c-0.1,0-0.3,0-0.6-0.1c-0.2,0-0.3-0.1-0.5-0.1c-0.3-0.1-0.6-0.1-1.1-0.3c-0.1,0-0.1,0-0.2-0.1
			c-0.2,0-0.3-0.1-0.6-0.3c0,0,0,0,0,0l0,0l-0.1-0.1c0,0,0,0,0,0c0,0,0,0,0,0l0.1-0.1L33,92c0,0,0,0,0,0l0,0l0,0l0,0l0.1,0l0.1,0.1
			c0.1,0,0.1,0,0.1,0.1c0.2,0.1,0.3,0.2,0.3,0.2c0.1,0,0.2,0,0.3,0.1c0.3,0.2,0.6,0.2,0.9,0.3c0.2,0,0.3,0.1,0.5,0.1
			c0.4,0.1,0.5,0.1,0.7,0c0.1-0.1,0.2-0.1,0.3-0.2c0.1,0,0.3-0.4,0.3-0.5c0,0,0,0.1,0.1,0.2l0.4-0.5c0.1,0.1,0.1,0.2,0.1,0.4
			c0,0.2-0.3,0.8-0.7,1c-0.1,0-0.1,0.1-0.2,0.1C36.3,93.4,36.1,93.5,35.8,93.5z"/>
		<path class="st5" d="M37.1,92.6c0.1-0.1,0.1-0.2,0.1-0.3l-0.6,0.2l0.1-0.3h0.6c0,0.1,0,0.1,0,0.2l0,0.2L37.1,92.6z"/>
		<path class="st5" d="M33,92.7c-1-0.5-2.9-2.3-2.9-3.5c0,0-0.1-0.2-0.1-0.3c-0.3-1-0.4-1.2-0.2-1.4l0.1-0.1l0.2,0.1L30,87.7l0,0
			l0,0l0.3,0c0,0.1,0.2,0.7,0.3,0.9c0.1,0.4,0.1,0.4,0.1,0.5c0,0.9,1.7,2.5,2.5,2.9L33,92.7z M30,87.7L29.9,88L30,87.7z"/>
		<path class="st5" d="M30.2,88.6L30,88.5c-0.2-0.2-0.3-1-0.3-1.1h0.6c0,0.1,0.1,0.6,0.2,0.7l-0.3,0.1L30.2,88.6z"/>
		<path class="st5" d="M64.8,92.2c-0.1-0.3-0.1-0.8,0-2.4c0.1-1.5,0.1-3.6-0.1-4.3c0-0.1,0-0.3,0.1-0.5c0.1-0.2,0.1-0.4,0.1-0.6h0.6
			c0,0.3-0.1,0.6-0.1,0.8c0,0.1,0,0.1,0,0.2c0.3,0.9,0.2,2.8,0.1,4.5c0,0.9-0.1,1.9,0,2.1L64.8,92.2z"/>
		<path class="st5" d="M65.3,84.8l-0.6-0.3l0.3,0.1l-0.3-0.1c0-0.1,0-0.3,0-0.5c0-0.7,0-1.1,0.2-1.2c0,0,0,0,0,0c0,0,0,0,0,0
			c0.1-0.1,0.2-0.3,0.4-0.5c0.2-0.2,0.5-0.2,0.9-0.2c0.4,0.1,0.8,0.3,1.1,0.7l0.1,0.2c0,0.1,0.1,0.1,0.1,0.2c0,0,0.1-0.1,0.2-0.2
			c0.1-0.1,0.5-0.5,0.8-0.5v0.6v-0.3l0.1,0.3c-0.1,0-0.3,0.2-0.4,0.3c-0.2,0.2-0.4,0.5-0.7,0.5c-0.3,0-0.5-0.3-0.6-0.5l-0.1-0.1
			c-0.1-0.2-0.4-0.4-0.6-0.4c-0.2,0-0.3,0-0.4,0.1c-0.1,0.1-0.2,0.2-0.3,0.3c0,0-0.1,0.1-0.1,0.1c0,0.1,0,0.5,0,0.8
			C65.4,84.5,65.4,84.7,65.3,84.8z"/>
		<path class="st5" d="M68.5,83.2l-0.4-0.5c0.7-0.5,1.4-0.5,2.2-0.5l0.1,0c1.6,0,1.8,0.1,1.9,0.1l-0.1,0.3l0,0.3l-0.1,0
			c0,0-0.3-0.1-1.6-0.1h-0.1C69.5,82.8,69,82.8,68.5,83.2z"/>
		<path class="st5" d="M69.3,85c0,0,0.1-0.1,0.1-0.2l-0.6-0.2c0.1-0.3,0.4-0.3,1.1-0.3l0.1,0c0.3,0,0.7,0,1,0c0.7,0,1.1,0,1.4-0.3
			c0.2-0.2,0.2-0.2,0.1-0.4c0-0.1,0-0.2,0-0.3c0-0.1-0.2-0.2-0.5-0.4c-0.1,0-0.2-0.1-0.3-0.1l0.3-0.6c0.1,0,0.2,0.1,0.2,0.1
			c0.3,0.2,0.8,0.4,0.9,1c0,0.1,0,0.1,0,0.2c0,0.2,0.1,0.6-0.3,1C72.3,85,71.6,85,70.9,85c-0.3,0-0.6,0-0.9,0c0,0-0.1,0-0.2,0
			C69.5,85,69.3,85,69.3,85z"/>
		<path class="st5" d="M67.4,86.7l-0.2-0.6l0.1,0.3l-0.3,0l0-0.1c0.1-0.3,0.1-0.4,0.2-0.5c0,0,0.1-0.1,0.1-0.1
			c0.1-0.2,0.3-0.4,0.4-0.5l0.1-0.1c0.4-0.4,0.9-0.6,1.4-0.7l0.2-0.1l0.2,0.6L69.4,85c-0.5,0.1-0.8,0.2-1.1,0.5l-0.1,0.1
			c-0.1,0.1-0.2,0.2-0.3,0.4c0,0.1-0.1,0.1-0.1,0.2c0,0.1-0.1,0.1-0.1,0.2v0.2L67.4,86.7z"/>
		<path class="st5" d="M66.8,89.4c-0.1-0.2,0-0.4,0-0.5c0,0,0-0.1,0-0.1c0-0.3,0-0.5,0-0.7c0-0.1,0-0.2,0-0.4c0-0.4,0-0.5,0-0.6
			c0-0.4,0.1-0.6,0.2-0.8c0,0,0-0.1,0-0.1l0.6,0c0,0.2-0.1,0.3-0.1,0.4c0,0.1-0.1,0.2-0.1,0.4c0,0.1,0,0.2,0,0.2c0,0,0,0.1,0,0.4
			c0,0.2,0,0.3,0,0.4c0,0.2,0,0.3,0,0.6c0,0.1,0,0.3,0,0.4c0,0.1,0,0.1,0,0.2L66.8,89.4z"/>
		<path class="st5" d="M67,86.4c0-0.2,0.1-0.3,0.2-0.3c0,0,0,0,0,0l0.3,0.1c0,0.1-0.1,0.1-0.1,0.1c0,0,0,0,0,0L67,86.4z"/>
		<path class="st5" d="M65.8,93.6c-0.2,0-0.3,0-0.5-0.1c-0.3-0.2-0.5-0.5-0.5-1c0,0,0-0.1,0-0.2c0-0.1,0-0.3,0-0.3l0.6,0
			c0,0,0,0.2,0,0.3c0,0.1,0,0.2,0,0.2c0,0.2,0.1,0.4,0.2,0.5c0.2,0.1,0.5,0,0.9-0.2l0.1,0l0.1,0c0.3-0.2,0.4-2.8,0.2-3.7l0.6-0.1
			c0.1,0.4,0.3,3.4-0.4,4.1c-0.1,0.2-0.3,0.2-0.4,0.3C66.5,93.5,66.2,93.6,65.8,93.6z"/>
		<path class="st5" d="M76.4,93.5c-0.4,0-0.7-0.1-0.9-0.3c-0.6-0.5-0.5-1.3-0.4-1.9c0-0.2,0-0.4,0-0.5l0.6-0.1c0,0.2,0,0.4,0,0.6
			c0,0.5-0.1,1.1,0.2,1.4c0.2,0.2,0.6,0.2,1.2,0c0.1-0.1,0.3-1,0.2-4.3c0-0.3,0-0.4,0-0.6H78c0,0.1,0,0.3,0,0.5
			c0.1,3.6-0.1,4.8-0.7,5C77,93.4,76.7,93.5,76.4,93.5z"/>
		<path class="st5" d="M75.2,90.9c-0.2-0.5,0-4.1,0.1-4.5l0-0.2c0.1-0.3,0.1-0.5,0.3-0.8l0.5,0.4C76.1,86,76,86.1,76,86.3
			c0,0.1,0,0.1-0.1,0.2c-0.1,0.4-0.3,3.7-0.1,4.1L75.2,90.9z"/>
		<path class="st5" d="M75.5,85.9c-0.1-0.2,0-0.4,0.1-0.6c0.3-0.7,1.6-2.1,2.2-2.4c0,0,0,0,0,0c0.2-0.2,0.6-0.5,1.3-0.6
			c0.3,0,0.5-0.1,0.7-0.1c0.7-0.1,1.1-0.2,2.2,0.1c1.7,0.4,2,0.7,3,1.7l0.3,0.3l-0.4,0.5l-0.1,0l-0.3-0.3c-1-1-1.2-1.2-2.7-1.6
			c-1-0.2-1.2-0.2-1.9-0.1c-0.2,0-0.4,0.1-0.7,0.1c-0.5,0.1-0.8,0.3-1,0.5c-0.1,0.1-0.2,0.2-0.3,0.2c-0.5,0.2-1.9,1.8-1.9,2.1
			c0,0,0,0,0-0.1L75.5,85.9z"/>
		<path class="st5" d="M93.7,85.3c-0.1-0.1-0.2-0.3-0.3-0.5c-0.1-0.2-0.2-0.4-0.3-0.4c-1-0.8-1.8-1.3-3-1.5c-0.6-0.1-0.9-0.1-1.2,0
			c-0.2,0-0.4,0.1-0.8,0.1c-0.8,0-2.8,1.4-2.8,1.8l-0.6,0.1c0-0.2,0.1-0.5,0.3-0.8c0.6-0.7,2.3-1.7,3.1-1.7c0.3,0,0.5,0,0.7-0.1
			c0.3-0.1,0.7-0.1,1.4,0c1.4,0.3,2.3,1,3.3,1.7c0.1,0.1,0.2,0.2,0.4,0.6c0.1,0.2,0.2,0.4,0.3,0.4L93.7,85.3z"/>
		<path class="st5" d="M85.3,84.8h-0.6c0-0.1,0-0.1,0-0.2c0-0.1,0-0.1,0-0.1l0.6,0c0,0.1,0,0.2,0,0.2C85.4,84.7,85.3,84.7,85.3,84.8
			z"/>
		<path class="st5" d="M85.2,84.9h-0.3c0-0.1,0-0.1,0-0.2l0.3,0C85.2,84.8,85.2,84.8,85.2,84.9z"/>
		<path class="st5" d="M94.5,93.1l-0.2-0.2l-0.3,0l0.1-0.3c0.2-0.2,0.3-2,0.2-2.4c-0.1-0.5-0.1-1,0-1.3c0-0.2,0-0.3,0-0.5
			c0-0.1,0-0.3,0-0.5c0-0.7-0.2-2.4-0.6-2.7l0.3-0.6c0.7,0.4,0.8,1.7,0.9,3.2c0,0.2,0,0.4,0,0.5c0,0.2,0,0.4,0,0.6
			c0,0.3-0.1,0.7,0,1.1C95,90.6,94.9,92.7,94.5,93.1z"/>
		<path class="st5" d="M93.4,93.6c-0.2,0-0.5-0.1-0.6-0.2c-0.4-0.3-0.7-0.8-0.7-1.3c0-0.4,0-0.7,0-1.1v-0.2h0.6V91
			c0,0.4,0,0.7,0,1.1c0,0.3,0.2,0.6,0.4,0.7c0.2,0.1,0.4,0.1,0.7,0c0.2-0.1,0.3-0.2,0.3-0.2l0-0.1l0.1-0.1l0.2,0.3l0.3,0.2
			c-0.1,0.2-0.2,0.3-0.6,0.5C93.8,93.5,93.6,93.6,93.4,93.6z"/>
		<path class="st5" d="M92.7,91.2l-0.6-0.3l0.3,0.2l-0.3-0.1c0.1-0.4,0.1-3.7-0.2-4.1c-0.1-0.1-0.2-0.3-0.3-0.5
			c-0.1-0.2-0.2-0.5-0.4-0.6l0.4-0.5c0.3,0.3,0.4,0.6,0.6,0.9c0.1,0.1,0.1,0.3,0.2,0.3C92.9,86.9,92.8,91,92.7,91.2z"/>
		<path class="st5" d="M86.3,91.9l-0.6-0.3l0.3,0.2l-0.3-0.1c0-0.3,0-3-0.1-3.3c-0.1-1.5,0.6-2.9,1.8-3.6c1.6-0.9,3.1-0.6,4.3,0.6
			l-0.5,0.4c-1.2-1.3-2.6-1-3.5-0.5c-1,0.5-1.6,1.7-1.5,2.9C86.3,88.3,86.5,91.7,86.3,91.9z"/>
		<path class="st5" d="M85,93.5c-0.2,0-0.4,0-0.7-0.2c-0.6-0.2-0.6-1-0.7-1.6c0-0.2,0-0.5,0-0.5c0-0.1,0-0.2,0-0.4
			c0-0.1,0-0.2,0-0.3c0,0,0,0,0,0.1l0.5-0.4c0.1,0.2,0.1,0.4,0.1,0.7c0,0,0,0.1,0,0.1c0.1,0.2,0.1,0.4,0.1,0.7c0,0.4,0,1,0.2,1
			c0.5,0.2,0.5,0.1,0.9-0.1c0.2-0.1,0.4-0.8,0.3-1l0.6-0.3c0.2,0.4,0,1.5-0.6,1.9C85.5,93.4,85.3,93.5,85,93.5z"/>
		<path class="st5" d="M84.3,90.6h-0.6c0-0.1,0-0.3,0-0.5c0-0.8,0-2.9-0.2-3.4c0,0-0.1-0.1-0.1-0.2c-0.5-1-0.8-1.2-0.8-1.3l0-0.6
			c0.5-0.1,0.9,0.6,1.5,1.6c0,0.1,0.1,0.1,0.1,0.2c0.3,0.6,0.3,2.1,0.3,3.7C84.3,90.3,84.3,90.5,84.3,90.6z"/>
		<path class="st5" d="M77.9,88h-0.6c0-0.2,0-0.6,0-0.8c0.1-0.8,0.6-1.5,1.1-2.1c0.7-0.8,2-1,3-0.8c0.2,0,0.6,0.2,1.4,0.4l0.1,0
			l-0.1,0.3v0.3c-0.1,0-0.1,0-0.2,0c-1-0.3-1.3-0.4-1.4-0.4c-0.8-0.2-1.9,0-2.4,0.6c-0.5,0.6-0.9,1.1-0.9,1.7
			C77.9,87.4,77.9,87.8,77.9,88z"/>
		<path d="M75.3,87.7H75c0-2.4,1.5-4.5,3.7-5.4c2.2-0.8,4.8-0.2,6.4,1.6l-0.2,0.2c-1.5-1.7-4-2.3-6.1-1.5
			C76.7,83.3,75.3,85.4,75.3,87.7z"/>
		<path class="st5" d="M76.1,85.8l-0.3,0c0-0.1,0-0.1,0.1-0.2c0,0,0,0,0-0.1h0.3C76.2,85.7,76.2,85.8,76.1,85.8z"/>
		<path d="M64.8,83.6h-0.3c0-0.8,0.6-1.5,1.4-1.5c0.8-0.1,1.5,0.5,1.6,1.3l-0.2,0c-0.1-0.7-0.7-1.1-1.4-1.1
			C65.3,82.3,64.8,82.9,64.8,83.6z"/>
		<path class="st5" d="M14.9,93.3c-0.1,0-0.2,0-0.2,0c-0.5-0.1-1.4-0.6-1.1-3c0.1-1,0-3.5-0.4-4.1c-1-1.7-2.7-1.8-4-1
			c-1.2,0.7-2,2.1-1.3,3.4c1,1.8,1.2,2,3.5,2v0.6c-2.5,0-3-0.3-4.1-2.3c-0.9-1.7,0.1-3.4,1.6-4.3c1.5-0.8,3.7-0.8,4.9,1.3
			c0.5,0.9,0.6,3.7,0.4,4.6c-0.2,1.3,0,2.1,0.5,2.2c0.4,0.1,0.9-0.2,0.9-0.3c0.2-0.9,0.1-2.7,0.1-4.2c0-0.5,0-1,0-1.4h0.6
			c0,0.4,0,0.9,0,1.4c0,1.5,0.1,3.4-0.1,4.4C16.2,92.9,15.6,93.3,14.9,93.3z"/>
		<path class="st5" d="M10.7,93.3c-0.5,0-1-0.1-1.5-0.2c0,0-0.2-0.1-0.3-0.1c-0.2-0.1-0.3-0.1-0.4-0.2l0.1-0.3l-0.1-0.4
			c0.1,0,0.2,0,0.6,0.2c0.1,0,0.2,0.1,0.2,0.1c0.7,0.2,1.8,0.2,2.5,0c0.1,0,0.3-0.2,0.4-0.5c0.1-0.3,0.1-0.5,0-0.5
			c-0.1-0.2-0.5-0.4-0.7-0.4c0,0-0.1,0-0.1,0L11,90.6c0.1-0.1,0.3-0.2,0.6-0.2c0.4,0,1,0.4,1.2,0.7c0.2,0.3,0.2,0.7,0.1,1.1
			c-0.1,0.4-0.4,0.8-0.8,1C11.6,93.3,11.2,93.3,10.7,93.3z"/>
		<path class="st5" d="M16,87.1c-0.2,0-0.3-0.2-0.3-0.4c-0.1-0.3-0.4-1.4-0.5-1.7c-0.1-0.2-1.2-1.5-1.4-1.6l0.1-0.2l0.1-0.4
			c0.3,0.1,1.7,1.7,1.8,2c0.1,0.3,0.3,1.1,0.5,1.7l0,0.2l-0.3,0.1L16,87.1z"/>
		<path class="st5" d="M14,83.6c-0.2-0.3-1.9-1-2.4-1l-0.4,0c-0.4,0-0.4,0-1.1,0c-0.8,0-1.5,0.4-1.8,0.5C8.1,83.2,8,83.2,8,83.2
			l-0.1-0.6l0,0.3l-0.1-0.3c0,0,0.1,0,0.1-0.1C8.3,82.4,9.1,82,10,82c0.7,0,0.7,0,1.2,0l0.4,0c0.6,0,2.7,0.8,3,1.4L14,83.6z"/>
		<path class="st5" d="M5.9,89.2H5.3c0,0,0-0.1-0.2-0.5l0-0.1c0-0.4,0-0.5,0-0.7c0-0.3,0-0.5,0-1.3C5.1,85.5,6,84,6.9,83.3
			c0.2-0.1,0.7-0.5,0.9-0.7L8,82.5L8.4,83c0,0-0.1,0.1-0.2,0.1c-0.3,0.2-0.8,0.6-0.9,0.7c-0.7,0.6-1.5,2-1.6,2.8
			c-0.1,0.7,0,0.9,0,1.2c0,0.2,0,0.4,0,0.7C5.9,89,5.9,89.2,5.9,89.2z"/>
		<path class="st5" d="M9.9,93.1l-1-0.1c-0.8-0.1-1.6-0.9-2.2-1.4l-0.1-0.1c-0.6-0.6-0.8-1-1-1.6c-0.1-0.2-0.2-0.5-0.4-0.7l0.6-0.3
			c0.2,0.3,0.3,0.6,0.4,0.8C6.3,90.1,6.5,90.5,7,91l0.1,0.1c0.5,0.4,1.2,1.2,1.8,1.2l0,0.3l0.2-0.2L9.9,93.1z"/>
		<path d="M10.7,93.4c-1.9,0-3.6-0.9-4.8-2.5c-1.4-2-1.5-4.6-0.2-6.6c1.3-2,3.7-3,6.1-2.6c2.4,0.5,4.2,2.3,4.6,4.7l-0.2,0
			c-0.4-2.3-2.1-4.1-4.4-4.5c-2.3-0.5-4.6,0.5-5.8,2.5c-1.3,2-1.2,4.4,0.2,6.3s3.7,2.7,5.9,2.2l0.1,0.2
			C11.7,93.4,11.2,93.4,10.7,93.4z"/>
		<path class="st5" d="M16.2,87.3l-0.3-0.4l0.2,0.2L15.8,87c0-0.1,0-0.3-0.1-0.4l0.1-0.1l0.2-0.3c0.2,0.1,0.2,0.6,0.2,0.7
			C16.3,87.1,16.3,87.2,16.2,87.3z"/>
		<path class="st5" d="M30.1,88C30.1,88,30,88,30.1,88L30.1,88l0.1-0.1l0.1-0.1c0,0,0,0.1,0,0.2L30.1,88l0.2,0L30.1,88z"/>
		<path class="st5" d="M50.7,92.3c0,0,0-0.1,0-0.1c0,0,0,0,0-0.1c0-0.1,0-0.2,0-0.3c0,0,0-0.1,0-0.1c0-0.2,0-0.8,0-1
			c0-0.1,0-0.2,0-0.3l0-0.1l0-0.1c0-0.1,0-1,0-1.2l0.6-0.2c0.1,0.1,0.1,1.1,0,1.5c0,0.1,0,0.4,0,0.4c0,0.1,0,0.6,0,0.9
			c0,0.1,0,0.2,0,0.2c0,0.1,0,0.1,0,0.2c0,0.1,0,0.1,0,0.2L50.7,92.3z"/>
		<path class="st5" d="M50,93.5c-0.2,0-0.4,0-0.5-0.1c-0.1,0-0.8-0.4-0.8-0.8c0,0,0-0.1,0-0.2c-0.1-0.2-0.1-0.4,0-0.7
			c0-0.1,0-0.4,0-0.6c0-0.4,0-0.6,0-0.8c0-0.1,0-0.8-0.1-1c0,0,0,0,0.1,0.1L49,89c0.4,0.2,0.3,1.5,0.2,1.7c0,0,0,0.3,0,0.5
			c0,0.4,0,0.7,0,0.9c0,0,0,0.2,0.1,0.3c0,0.1,0,0.1,0,0.2c0.1,0.1,0.3,0.3,0.4,0.3c0.2,0.1,0.5,0.1,0.6,0l0.1,0
			c0-0.1,0.1-0.1,0.1-0.1c0.1-0.1,0.1-0.1,0.1-0.2l0-0.1c0-0.1,0-0.1,0-0.4l0-0.2l0.1-0.1l0.2,0.2l0,0l0.3-0.1l0,0.2l0.1,0
			c0,0.3,0,0.4,0,0.6l0,0.1c0,0.2-0.2,0.3-0.3,0.5c0,0-0.1,0.1-0.1,0.1c-0.1,0.1-0.2,0.2-0.3,0.2C50.4,93.5,50.2,93.5,50,93.5z"/>
		<rect x="54.1" y="83.4" width="0.3" height="4.1"/>
		<rect x="54.7" y="83.4" width="0.3" height="4.1"/>
		<line class="st6" x1="57" y1="85.5" x2="57" y2="85.5"/>
		<path d="M60.6,90.9c-1.3-0.1-2.4-0.7-3.1-1.8l0.2-0.1c0.6,1,1.7,1.7,2.9,1.7L60.6,90.9z"/>
		<path d="M60.4,91.5c-1.8-0.1-3.5-1.4-4-3.2l0.2-0.1c0.5,1.7,2,2.9,3.8,3L60.4,91.5z"/>
		<path d="M60.5,93.7c-3.4-0.1-6.2-2.8-6.4-6.2l0.2,0c0.2,3.3,2.9,5.9,6.2,6L60.5,93.7z"/>
		<path d="M60.4,93c-3-0.2-5.5-2.6-5.7-5.6l0.2,0c0.2,2.9,2.6,5.2,5.5,5.4L60.4,93z"/>
		<rect x="29.6" y="80.7" width="0.2" height="6.7"/>
		<rect x="30.2" y="80.1" width="0.2" height="7.4"/>
		<rect x="33.9" y="79.2" width="1" height="0.2"/>
		<rect x="33.9" y="79.9" width="1" height="0.2"/>
		<rect x="33.2" y="82" width="1.7" height="0.2"/>
		<rect x="33.2" y="81.4" width="1.7" height="0.2"/>
		<rect x="64.6" y="83.5" width="0.2" height="8.8"/>
		<rect x="65.2" y="83.5" width="0.2" height="8.7"/>
		<rect x="69.5" y="82" width="2.4" height="0.2"/>
		<rect x="69.5" y="82.7" width="2.3" height="0.2"/>
		<rect x="69.3" y="84.9" width="2.6" height="0.2"/>
		<rect x="69.3" y="84.2" width="2.6" height="0.2"/>
		<path d="M71.8,85.1l0-0.2c0.7,0,1.3-0.6,1.3-1.3c0-0.7-0.6-1.3-1.3-1.3l0-0.2c0.8,0,1.5,0.7,1.5,1.5
			C73.4,84.4,72.7,85.1,71.8,85.1z"/>
		<path d="M71.8,84.4l0-0.2c0.3,0,0.6-0.3,0.6-0.6c0-0.3-0.3-0.6-0.6-0.6l0-0.2c0.5,0,0.9,0.4,0.9,0.9C72.7,84,72.3,84.4,71.8,84.4z
			"/>
		<path d="M67.6,83.4l-0.2-0.1c0.5-0.8,1.3-1.2,2.2-1.2c0,0,0,0,0,0l0,0.2c0,0,0,0,0,0C68.7,82.3,68,82.7,67.6,83.4z"/>
		<path d="M68.1,83.7l-0.2-0.1c0.3-0.6,0.9-0.9,1.6-0.9c0,0,0,0,0,0l0,0.2c0,0,0,0,0,0C69,82.9,68.4,83.2,68.1,83.7z"/>
		<path d="M67.6,87.1l-0.2,0c0.1-1.1,0.9-1.9,1.9-2.2l0.1,0.2C68.4,85.3,67.7,86.1,67.6,87.1z"/>
		<path d="M67,87l-0.2,0c0.1-1.4,1.2-2.6,2.6-2.8l0,0.2C68.1,84.7,67.1,85.7,67,87z"/>
		<rect x="67.4" y="87" width="0.2" height="5.2"/>
		<rect x="66.7" y="87" width="0.2" height="5.3"/>
		<rect x="86.3" y="87.6" width="0.2" height="4.5"/>
		<rect x="83.5" y="87.7" width="0.2" height="4.5"/>
		<rect x="77.8" y="87.6" width="0.2" height="4.5"/>
		<rect x="77.2" y="87.7" width="0.2" height="4.5"/>
		<rect x="75" y="87.7" width="0.2" height="4.5"/>
		<rect x="75.7" y="87.7" width="0.2" height="4.5"/>
		<path d="M75.9,87.7h-0.2c0-2.3,1.5-4.3,3.7-4.9c2.2-0.6,4.5,0.3,5.7,2.2l-0.2,0.1c-1.1-1.8-3.4-2.7-5.5-2.1
			C77.4,83.6,75.9,85.5,75.9,87.7z"/>
		<path d="M83.7,87.7h-0.2c0-1.5-1.2-2.7-2.7-2.7c-1.5,0-2.7,1.2-2.7,2.7h-0.2c0-1.6,1.3-2.9,2.9-2.9S83.7,86.1,83.7,87.7z"/>
		<path d="M84.4,87.7h-0.2c0-1.8-1.5-3.4-3.4-3.4s-3.4,1.5-3.4,3.4h-0.2c0-2,1.6-3.6,3.6-3.6S84.4,85.7,84.4,87.7z"/>
		<path d="M85,93.7c-0.8,0-1.5-0.7-1.5-1.5h0.2c0,0.7,0.6,1.3,1.3,1.3c0.7,0,1.3-0.6,1.3-1.3h0.2C86.5,93,85.9,93.7,85,93.7z"/>
		<path d="M85,93c-0.5,0-0.9-0.4-0.9-0.9h0.2c0,0.3,0.3,0.6,0.6,0.6s0.6-0.3,0.6-0.6h0.2C85.9,92.6,85.5,93,85,93z"/>
		<path d="M76.6,93.7c-0.8,0-1.5-0.7-1.5-1.5h0.2c0,0.7,0.6,1.3,1.3,1.3c0.7,0,1.3-0.6,1.3-1.3h0.2C78.1,93,77.4,93.7,76.6,93.7z"/>
		<path d="M76.6,93c-0.5,0-0.9-0.4-0.9-0.9h0.2c0,0.3,0.3,0.6,0.6,0.6c0.3,0,0.6-0.3,0.6-0.6h0.2C77.4,92.6,77,93,76.6,93z"/>
		<rect x="94.8" y="87.7" width="0.2" height="4.5"/>
		<rect x="94.1" y="87.7" width="0.2" height="4.5"/>
		<rect x="91.9" y="87.6" width="0.2" height="4.5"/>
		<rect x="92.6" y="87.6" width="0.2" height="4.5"/>
		<rect x="85.6" y="87.7" width="0.2" height="4.5"/>
		<rect x="84.1" y="87.7" width="0.2" height="4.5"/>
		<path d="M95,87.7h-0.2c0-2.3-1.4-4.4-3.6-5.2c-2.1-0.8-4.6-0.2-6.1,1.5l-0.2-0.2c1.6-1.8,4.1-2.4,6.4-1.6
			C93.5,83.2,95,85.3,95,87.7z"/>
		<path d="M94.1,87.7c0-2.2-1.4-4.1-3.5-4.7c-2.1-0.6-4.3,0.3-5.5,2.1L84.9,85c1.2-1.9,3.6-2.8,5.7-2.2c2.2,0.6,3.7,2.6,3.7,4.9
			H94.1z"/>
		<path d="M92.2,87.7h-0.2c0-1.5-1.2-2.7-2.7-2.7c-1.5,0-2.7,1.2-2.7,2.7h-0.2c0-1.6,1.3-2.9,2.9-2.9C90.9,84.8,92.2,86.1,92.2,87.7
			z"/>
		<path d="M92.8,87.7h-0.2c0-1.8-1.5-3.4-3.4-3.4c-1.8,0-3.4,1.5-3.4,3.4h-0.2c0-2,1.6-3.6,3.6-3.6C91.2,84.1,92.8,85.7,92.8,87.7z"
			/>
		<path d="M93.5,93.7c-0.8,0-1.5-0.7-1.5-1.5h0.2c0,0.7,0.6,1.3,1.3,1.3c0.7,0,1.3-0.6,1.3-1.3H95C95,93,94.3,93.7,93.5,93.7z"/>
		<path d="M93.5,93c-0.5,0-0.9-0.4-0.9-0.9h0.2c0,0.3,0.3,0.6,0.6,0.6c0.3,0,0.6-0.3,0.6-0.6h0.2C94.3,92.6,94,93,93.5,93z"/>
		<path d="M54.3,83.5h-0.2c0-0.4,0.2-0.8,0.4-1.1c0.3-0.3,0.7-0.4,1.1-0.4v0.2c-0.3,0-0.7,0.1-0.9,0.4
			C54.5,82.8,54.3,83.1,54.3,83.5z"/>
		<path d="M55,83.5h-0.2c0-0.2,0.1-0.5,0.3-0.6c0.2-0.2,0.4-0.3,0.6-0.3v0.2c-0.2,0-0.3,0.1-0.4,0.2C55,83.1,55,83.3,55,83.5z"/>
		<path d="M35.9,90.8c-1.7-0.1-3-1.3-3.4-2.9l0.2-0.1c0.4,1.5,1.6,2.6,3.2,2.8L35.9,90.8z"/>
		<path d="M35.9,91.5c-2-0.1-3.7-1.6-4.1-3.6l0.2,0c0.4,1.9,2,3.3,3.9,3.4L35.9,91.5z"/>
		<path d="M35.9,93.7c-3.4-0.2-6.1-2.9-6.3-6.3l0.2,0c0.2,3.3,2.8,5.9,6.1,6.1L35.9,93.7z"/>
		<path d="M35.9,93c-3-0.2-5.5-2.6-5.7-5.6l0.2,0c0.2,2.9,2.5,5.2,5.4,5.4L35.9,93z"/>
		<rect x="29.6" y="74.3" width="0.2" height="6.5"/>
		<rect x="30.2" y="74.3" width="0.2" height="5.8"/>
		<rect x="32.4" y="74.3" width="0.2" height="3.7"/>
		<rect x="31.7" y="74.3" width="0.2" height="3.6"/>
		<path d="M33.9,79.5c-0.4,0-0.8-0.2-1.1-0.4c-0.3-0.3-0.4-0.7-0.4-1.1h0.2c0,0.3,0.1,0.7,0.4,0.9c0.2,0.2,0.6,0.4,0.9,0.4V79.5z"/>
		<path d="M33.9,80.1c-0.6,0-1.1-0.2-1.5-0.6c-0.4-0.4-0.6-1-0.6-1.5H32c0,0.5,0.2,1,0.6,1.4c0.4,0.4,0.9,0.6,1.4,0.6V80.1z"/>
		<path d="M32.6,74.3h-0.2c0-0.5-0.2-0.9-0.6-1.1c-0.4-0.2-0.9-0.2-1.3,0c-0.4,0.2-0.6,0.7-0.6,1.1h-0.2c0-0.5,0.3-1.1,0.8-1.3
			c0.5-0.3,1.1-0.3,1.5,0C32.4,73.3,32.6,73.8,32.6,74.3z"/>
		<path d="M32,74.3h-0.2c0-0.2-0.1-0.4-0.3-0.5c-0.2-0.1-0.4-0.1-0.6,0c-0.2,0.1-0.3,0.3-0.3,0.5h-0.2c0-0.3,0.2-0.6,0.4-0.8
			c0.3-0.2,0.6-0.2,0.9,0C31.8,73.7,32,74,32,74.3z"/>
		<rect x="32.5" y="82.8" width="0.2" height="5.1"/>
		<rect x="31.8" y="82.9" width="0.2" height="5.1"/>
		<rect x="55.6" y="81.9" width="5" height="0.2"/>
		<rect x="55.6" y="82.6" width="4.9" height="0.2"/>
		<rect x="57.6" y="84.8" width="2.9" height="0.2"/>
		<rect x="57.6" y="84.1" width="2.8" height="0.2"/>
		<rect x="57.6" y="86" width="2.9" height="0.2"/>
		<rect x="57.7" y="86.7" width="2.8" height="0.2"/>
		<rect x="57.6" y="88.9" width="2.9" height="0.2"/>
		<rect x="56.5" y="88.2" width="4" height="0.2"/>
		<rect x="19.1" y="83.5" width="0.2" height="4"/>
		<rect x="19.8" y="83.4" width="0.2" height="4.1"/>
		<rect x="21.9" y="83.4" width="0.2" height="3.8"/>
		<rect x="21.3" y="83.5" width="0.2" height="3.8"/>
		<path d="M25.7,90.9c-2,0-3.7-1.6-3.8-3.6l0.2,0c0.1,1.9,1.7,3.4,3.6,3.4L25.7,90.9z"/>
		<path d="M25.3,93.7c-3.3-0.2-6-2.9-6.2-6.2l0.2,0c0.2,3.2,2.8,5.8,6,6L25.3,93.7z"/>
		<path d="M25.7,93c-3.1,0-5.7-2.4-6-5.6l0.2,0c0.2,3,2.7,5.3,5.7,5.3c0,0,0,0,0,0L25.7,93C25.7,93,25.7,93,25.7,93z"/>
		<rect x="25.3" y="93.4" width="0.5" height="0.2"/>
		<path d="M22.2,83.5h-0.2c0-0.5-0.2-0.9-0.6-1.1c-0.4-0.2-0.9-0.2-1.3,0c-0.4,0.2-0.6,0.7-0.6,1.1h-0.2c0-0.5,0.3-1.1,0.8-1.3
			c0.5-0.3,1.1-0.3,1.5,0C21.9,82.4,22.2,82.9,22.2,83.5z"/>
		<path d="M21.5,83.5h-0.2c0-0.2-0.1-0.4-0.3-0.5c-0.2-0.1-0.4-0.1-0.6,0c-0.2,0.1-0.3,0.3-0.3,0.5h-0.2c0-0.3,0.2-0.6,0.4-0.8
			c0.3-0.2,0.6-0.2,0.9,0C21.3,82.9,21.5,83.2,21.5,83.5z"/>
		<path d="M57.7,86.3c-0.3,0-0.5-0.1-0.6-0.3c-0.2-0.2-0.2-0.5,0-0.8c0.1-0.2,0.4-0.4,0.7-0.4l0,0.2c-0.2,0-0.4,0.1-0.5,0.3
			c-0.1,0.2-0.1,0.4,0,0.5c0.1,0.2,0.3,0.3,0.5,0.2L57.7,86.3C57.7,86.3,57.7,86.3,57.7,86.3z"/>
		<path d="M57.7,86.9c-0.5,0-0.9-0.2-1.2-0.7c-0.3-0.4-0.3-1,0-1.4c0.2-0.5,0.7-0.7,1.2-0.7l0,0.2c-0.4,0-0.8,0.2-1,0.6
			c-0.2,0.4-0.2,0.8,0,1.2c0.2,0.4,0.6,0.6,1.1,0.5L57.7,86.9C57.7,86.9,57.7,86.9,57.7,86.9z"/>
		<path d="M32.5,82.9c0-0.4,0.3-0.8,0.7-0.8l0,0.2c-0.3,0-0.5,0.3-0.5,0.6L32.5,82.9z"/>
		<path d="M31.8,82.9c0-0.4,0.1-0.8,0.4-1.1c0.3-0.3,0.6-0.5,1-0.5l0,0.2c-0.3,0-0.6,0.2-0.9,0.4c-0.2,0.2-0.3,0.6-0.3,0.9
			L31.8,82.9z"/>
		<path d="M66.1,93.8c-0.8,0-1.5-0.7-1.5-1.5h0.2c0,0.7,0.6,1.3,1.3,1.3c0.7,0,1.3-0.6,1.3-1.3h0.2C67.6,93.1,66.9,93.8,66.1,93.8z"
			/>
		<path d="M66.1,93.1c-0.5,0-0.9-0.4-0.9-0.9h0.2c0,0.3,0.3,0.6,0.6,0.6s0.6-0.3,0.6-0.6H67C67,92.7,66.6,93.1,66.1,93.1z"/>
		<path d="M25.7,93.7C25.7,93.7,25.7,93.7,25.7,93.7l0-0.2c0,0,0,0,0,0c0.5,0,0.9-0.2,1.1-0.6c0.2-0.4,0.2-0.9,0-1.3
			c-0.2-0.4-0.7-0.7-1.1-0.6l0-0.2c0,0,0,0,0,0c0.5,0,1,0.3,1.3,0.8c0.3,0.5,0.3,1.1,0,1.5C26.8,93.4,26.3,93.7,25.7,93.7z"/>
		<path d="M34.9,82.3V82c0.5,0,0.9-0.2,1.1-0.6c0.2-0.4,0.2-0.9,0-1.3c-0.2-0.4-0.7-0.6-1.1-0.6v-0.2c0.5,0,1.1,0.3,1.3,0.8
			c0.3,0.5,0.3,1.1,0,1.5C35.9,82,35.4,82.3,34.9,82.3z"/>
		<path d="M25.7,93C25.7,93,25.7,93,25.7,93l0-0.2c0,0,0,0,0,0c0.2,0,0.4-0.1,0.5-0.3c0.1-0.2,0.1-0.4,0-0.6
			c-0.1-0.2-0.3-0.3-0.5-0.3c0,0,0,0,0,0l0-0.2c0.3,0,0.6,0.2,0.8,0.4c0.2,0.3,0.2,0.6,0,0.9C26.3,92.9,26,93,25.7,93z"/>
		<path d="M35.9,93.7l0-0.2c0.7,0,1.3-0.6,1.3-1.3c0-0.7-0.6-1.3-1.3-1.3l0-0.2c0.8,0,1.5,0.7,1.5,1.5C37.5,93,36.8,93.7,35.9,93.7z
			"/>
		<rect x="16.3" y="86.5" width="0.2" height="5.4"/>
		<path d="M35.9,93l0-0.2c0.3,0,0.6-0.3,0.6-0.6c0-0.3-0.3-0.6-0.6-0.6l0-0.2c0.5,0,0.9,0.4,0.8,0.9C36.8,92.6,36.4,93,35.9,93z"/>
		<path d="M60.5,85l0-0.2c0.7,0,1.2-0.6,1.2-1.3c0-0.7-0.5-1.3-1.2-1.3l0-0.2c0.8,0.1,1.4,0.7,1.4,1.5C61.9,84.3,61.3,85,60.5,85z"
			/>
		<rect x="15.6" y="86.6" width="0.2" height="5.4"/>
		<path d="M10.7,92.8c-1.7,0-3.3-0.8-4.2-2.2c-1.2-1.8-1.3-4-0.1-5.8c1.2-1.8,3.3-2.7,5.4-2.3c2.1,0.4,3.7,2,4.1,4.1l-0.2,0
			c-0.4-2-1.9-3.6-3.9-4c-2-0.4-4,0.5-5.1,2.2c-1.1,1.7-1.1,3.9,0.1,5.6c1.2,1.7,3.2,2.4,5.2,2l0.1,0.2
			C11.5,92.7,11.1,92.8,10.7,92.8z"/>
		<path d="M10.7,90.6c-1,0-1.9-0.5-2.5-1.3c-0.7-1-0.8-2.4-0.1-3.5c0.7-1,2-1.6,3.2-1.3c1.2,0.3,2.2,1.3,2.3,2.6l-0.2,0
			c-0.2-1.1-1-2.1-2.1-2.4c-1.1-0.3-2.3,0.2-3,1.2c-0.6,1-0.6,2.2,0.1,3.2c0.7,0.9,1.9,1.4,3,1.1l0.1,0.2
			C11.2,90.6,11,90.6,10.7,90.6z"/>
		<path d="M60.4,84.3l0-0.2c0.3,0,0.6-0.3,0.6-0.6c0-0.3-0.3-0.6-0.6-0.6l0-0.2c0.5,0,0.8,0.4,0.8,0.9C61.3,84,60.9,84.3,60.4,84.3z
			"/>
		<path d="M60.4,93l0-0.2c0.3,0,0.6-0.3,0.6-0.6c0-0.3-0.3-0.6-0.6-0.6l0-0.2c0.5,0,0.9,0.4,0.8,0.9C61.3,92.6,60.9,93,60.4,93z"/>
		<path d="M10.7,91.3c-1.2,0-2.4-0.6-3.1-1.6c-0.9-1.3-0.8-3,0-4.2c0.9-1.3,2.5-1.8,3.9-1.5c1.5,0.4,2.6,1.7,2.8,3.2l-0.2,0
			c-0.2-1.4-1.2-2.6-2.6-3c-1.4-0.4-2.9,0.2-3.7,1.4c-0.8,1.2-0.8,2.7,0,3.9c0.8,1.2,2.3,1.7,3.7,1.4l0.1,0.2
			C11.3,91.3,11,91.3,10.7,91.3z"/>
		<path d="M15,93.4c-0.3,0-0.5-0.1-0.8-0.2c-0.5-0.3-0.8-0.8-0.8-1.3l0.2,0c0,0.5,0.2,0.9,0.6,1.1c0.4,0.2,0.9,0.2,1.3,0
			c0.4-0.2,0.6-0.7,0.6-1.1l0.2,0c0,0.5-0.3,1.1-0.8,1.3C15.5,93.4,15.3,93.4,15,93.4z"/>
		<path d="M15,92.8c-0.2,0-0.3,0-0.4-0.1c-0.3-0.2-0.4-0.4-0.4-0.8l0.2,0c0,0.2,0.1,0.4,0.3,0.5c0.2,0.1,0.4,0.1,0.6,0
			c0.2-0.1,0.3-0.3,0.3-0.5l0.2,0c0,0.3-0.2,0.6-0.4,0.8C15.3,92.7,15.2,92.8,15,92.8z"/>
		<rect x="13.5" y="87.1" width="0.2" height="4.8"/>
		<rect x="14.1" y="87.2" width="0.2" height="4.7"/>
		<path d="M12.2,93.3L12.1,93c0.6-0.3,0.9-0.9,0.7-1.5c-0.2-0.6-0.7-1-1.4-1l0-0.2c0.8-0.1,1.4,0.5,1.6,1.2
			C13.2,92.2,12.9,92.9,12.2,93.3z"/>
		<path d="M12,92.6l-0.1-0.2c0.3-0.1,0.4-0.4,0.3-0.7c-0.1-0.3-0.4-0.5-0.7-0.5l0-0.2c0.4,0,0.8,0.3,0.9,0.7
			C12.5,92,12.3,92.4,12,92.6z"/>
		<path d="M65.5,83.6h-0.2c0-0.5,0.4-0.8,0.8-0.9c0.4,0,0.9,0.3,0.9,0.7l-0.2,0c-0.1-0.3-0.4-0.6-0.7-0.5
			C65.7,83,65.5,83.2,65.5,83.6z"/>
		<path d="M60.5,93.7l0-0.2c0.7-0.1,1.2-0.6,1.2-1.3c0-0.7-0.5-1.2-1.1-1.3l0-0.2c0.8,0.1,1.4,0.8,1.4,1.6
			C61.9,93,61.3,93.6,60.5,93.7z"/>
		<path d="M60.5,89.1l0-0.2c0.7,0,1.2-0.6,1.2-1.3c0-0.7-0.5-1.3-1.2-1.3l0-0.2c0.8,0.1,1.4,0.7,1.4,1.5
			C61.9,88.4,61.3,89.1,60.5,89.1z"/>
		<path d="M34.9,81.6l0-0.2c0.3,0,0.6-0.3,0.6-0.6c0-0.3-0.3-0.6-0.6-0.6l0-0.2c0.5,0,0.9,0.4,0.9,0.9
			C35.7,81.2,35.4,81.6,34.9,81.6z"/>
		<path d="M60.5,88.4l0-0.2c0.3,0,0.6-0.3,0.6-0.6c0-0.3-0.3-0.6-0.6-0.6l0-0.2c0.5,0,0.8,0.4,0.8,0.9C61.3,88,60.9,88.4,60.5,88.4z
			"/>
		<path d="M67.5,84c-0.1,0-0.1,0-0.2,0c-0.3-0.1-0.5-0.2-0.6-0.5l0.2-0.1c0.1,0.2,0.3,0.3,0.5,0.4c0.2,0,0.4,0,0.6-0.2l0.2,0.2
			C68,83.9,67.7,84,67.5,84z"/>
		<rect x="19.1" y="83.5" width="0.2" height="4"/>
		<rect x="42.8" y="87.7" width="0.2" height="4.5"/>
		<pattern  id="SVGID_1_" xlink:href="#VectorFill_3" patternTransform="matrix(1 0 0 1 439 -322)">
		</pattern>
		<path class="st7" d="M40.7,87.7"/>
		<path d="M49.9,93c-0.5,0-0.9-0.4-0.9-0.9h0.2c0,0.3,0.3,0.6,0.6,0.6c0.3,0,0.6-0.3,0.6-0.6h0.2C50.8,92.6,50.4,93,49.9,93z"/>
		<path d="M41.5,93.7c-0.8,0-1.5-0.7-1.5-1.5h0.2c0,0.7,0.6,1.3,1.3,1.3c0.7,0,1.3-0.6,1.3-1.3H43C43,93,42.3,93.7,41.5,93.7z"/>
		<path d="M41.5,93c-0.5,0-0.9-0.4-0.9-0.9h0.2c0,0.3,0.3,0.6,0.6,0.6c0.3,0,0.6-0.3,0.6-0.6h0.2C42.4,92.6,42,93,41.5,93z"/>
		<rect x="40" y="74.2" width="0.2" height="17.9"/>
		<rect x="40.6" y="74.3" width="0.2" height="17.9"/>
		<rect x="42.8" y="74.3" width="0.2" height="8.5"/>
		<rect x="42.1" y="74.2" width="0.2" height="9.9"/>
		<path d="M43,74.3h-0.2c0-0.5-0.2-0.9-0.6-1.1c-0.4-0.2-0.9-0.2-1.3,0c-0.4,0.2-0.6,0.7-0.6,1.1H40c0-0.5,0.3-1.1,0.8-1.3
			c0.5-0.3,1.1-0.3,1.5,0C42.7,73.3,43,73.8,43,74.3z"/>
		<path d="M42.4,74.3h-0.2c0-0.2-0.1-0.4-0.3-0.5c-0.2-0.1-0.4-0.1-0.6,0c-0.2,0.1-0.3,0.3-0.3,0.5h-0.2c0-0.3,0.2-0.6,0.4-0.8
			c0.3-0.2,0.6-0.2,0.9,0C42.2,73.7,42.4,74,42.4,74.3z"/>
		<rect x="42.1" y="87.7" width="0.2" height="4.5"/>
		<path d="M51.5,87.7h-0.2c0-2-1.1-3.8-2.8-4.8c-1.7-1-3.8-1-5.5,0l-0.1-0.2c1.8-1,4-1,5.8,0C50.4,83.7,51.5,85.6,51.5,87.7z"/>
		<path d="M50.8,87.7h-0.2c0-2-1.2-3.7-3-4.5c-1.8-0.8-3.9-0.4-5.3,1L42.2,84c1.5-1.4,3.6-1.8,5.5-1C49.6,83.8,50.8,85.6,50.8,87.7z
			"/>
		<path class="st5" d="M48.6,89.8c-0.1-0.1-0.2-0.7-0.1-0.8c0.1-0.1,0-0.7,0-0.9l0-0.2c0-0.1,0-0.2,0-0.3c0-0.1,0-0.1,0-0.1
			c0-0.3,0-0.5-0.1-0.7c0-0.2,0-0.2-0.1-0.3l0.5-0.4c0.1,0.2,0.2,0.3,0.2,0.5c0.1,0.3,0.1,0.6,0.1,0.9l0,0c0,0.1,0,0.2,0,0.3l0,0.2
			c0,0.4,0,0.8-0.1,1.1c0,0.1,0,0.2,0.1,0.3l-0.3,0.1L48.6,89.8z"/>
		<path class="st5" d="M50.6,89.3C50.6,89.3,50.6,89.3,50.6,89.3c0-0.1,0-0.2,0-0.3l0-0.2h0.6v0.2c0,0.1,0,0.1,0,0.1
			c0,0,0,0.1,0,0.1L50.6,89.3z"/>
		<path class="st5" d="M48.3,86.6L48.3,86.6l-0.1-0.1l0-0.2h0.3l0.3-0.2c0.1,0.1,0.1,0.1,0.1,0.2L48.3,86.6z"/>
		<rect x="49.1" y="87.7" width="0.2" height="4.5"/>
		<path d="M49.3,87.7h-0.2c0-1.8-1.5-3.4-3.4-3.4c-1.8,0-3.4,1.5-3.4,3.4h-0.2c0-2,1.6-3.6,3.6-3.6S49.3,85.7,49.3,87.7z"/>
		<rect x="51.2" y="87.7" width="0.2" height="4.5"/>
		<path d="M49.9,93.7c-0.8,0-1.5-0.7-1.5-1.5h0.2c0,0.7,0.6,1.3,1.3,1.3c0.7,0,1.3-0.6,1.3-1.3h0.2C51.5,93,50.8,93.7,49.9,93.7z"/>
		<rect x="48.4" y="87.7" width="0.2" height="4.5"/>
		<rect x="50.6" y="87.7" width="0.2" height="4.5"/>
		<path d="M48.7,87.7h-0.2c0-1.5-1.2-2.7-2.7-2.7c-1.5,0-2.7,1.2-2.7,2.7h-0.2c0-1.6,1.3-2.9,2.9-2.9C47.3,84.8,48.7,86.1,48.7,87.7
			z"/>
	</g>
</g>
</svg>
