<?xml version="1.0" encoding="utf-8"?>
<!-- Generator: Adobe Illustrator 19.0.0, SVG Export Plug-In . SVG Version: 6.00 Build 0)  -->
<svg version="1.1" id="Layer_1" xmlns="http://www.w3.org/2000/svg" xmlns:xlink="http://www.w3.org/1999/xlink" x="0px" y="0px"
	 viewBox="0 0 100 100" style="enable-background:new 0 0 100 100;" xml:space="preserve">
<style type="text/css">
	.st0{fill:#4269AF;}
	.st1{fill:#FFFFFF;}
	.st2{fill:#040404;}
</style>
<rect id="XMLID_1_" class="st0" width="100" height="100"/>
<g id="XMLID_3_">
	<g id="XMLID_35_">
		<path id="XMLID_18_" class="st1" d="M11.8,64.2l1.2,0.3c-0.3,1-0.7,1.7-1.3,2.2c-0.6,0.5-1.4,0.8-2.4,0.8c-1,0-1.8-0.2-2.4-0.6
			c-0.6-0.4-1.1-1-1.4-1.7C5.2,64.4,5,63.6,5,62.7c0-0.9,0.2-1.8,0.5-2.5c0.4-0.7,0.9-1.2,1.5-1.6c0.7-0.4,1.4-0.5,2.2-0.5
			c0.9,0,1.7,0.2,2.3,0.7s1,1.1,1.3,1.9L11.6,61c-0.2-0.6-0.5-1.1-0.9-1.4c-0.4-0.3-0.9-0.4-1.5-0.4c-0.7,0-1.3,0.2-1.7,0.5
			c-0.4,0.3-0.8,0.8-1,1.3s-0.3,1.1-0.3,1.7c0,0.8,0.1,1.4,0.3,2c0.2,0.6,0.6,1,1.1,1.3s1,0.4,1.5,0.4c0.7,0,1.3-0.2,1.7-0.6
			C11.3,65.5,11.6,64.9,11.8,64.2z"/>
		<path id="XMLID_17_" class="st1" d="M14.4,67.3v-9h1.2v8H20v1.1C20,67.3,14.4,67.3,14.4,67.3z"/>
		<path id="XMLID_16_" class="st1" d="M21.5,67.3v-9H28v1.1h-5.3v2.8h5v1.1h-5v3.1h5.5v1.1H21.5L21.5,67.3z"/>
		<path id="XMLID_15_" class="st1" d="M32.4,67.3l-3.5-9h1.3l2.3,6.5c0.2,0.5,0.4,1,0.5,1.5c0.1-0.5,0.3-1,0.5-1.5l2.4-6.5h1.2
			l-3.5,9H32.4z"/>
		<path id="XMLID_14_" class="st1" d="M38.3,67.3v-9h6.5v1.1h-5.3v2.8h5v1.1h-5v3.1H45v1.1H38.3L38.3,67.3z"/>
		<path id="XMLID_36_" class="st1" d="M46.7,67.3v-9h4c0.8,0,1.4,0.1,1.8,0.3s0.8,0.4,1,0.9c0.3,0.4,0.4,0.9,0.4,1.3
			c0,0.6-0.2,1.2-0.6,1.6c-0.4,0.4-1.1,0.7-1.9,0.8c0.3,0.2,0.5,0.3,0.7,0.4c0.4,0.3,0.7,0.7,1,1.2l1.6,2.5h-1.5l-1.2-1.9
			c-0.4-0.5-0.6-1-0.9-1.3c-0.2-0.3-0.4-0.5-0.6-0.6c-0.2-0.1-0.4-0.2-0.5-0.3c-0.1,0-0.4,0-0.7,0h-1.4v4H46.7z M47.9,62.3h2.6
			c0.5,0,1-0.1,1.3-0.2c0.3-0.1,0.5-0.3,0.7-0.5s0.3-0.5,0.3-0.8c0-0.4-0.2-0.8-0.4-1.1c-0.3-0.3-0.8-0.4-1.5-0.4h-2.9L47.9,62.3
			L47.9,62.3z"/>
	</g>
	<g id="XMLID_22_">
		<path id="XMLID_32_" class="st1" d="M58.3,70.3c1.2-1.2,1.7-2.3,1.7-3.4c0-0.8-0.3-1.8-0.8-3c-0.5-1.2-1.4-2.4-2.5-3.8
			c-1.2-1.4-1.9-2.6-2.3-3.5c-0.4-1-0.6-1.9-0.6-2.9c0-2.2,1-4.1,2.9-5.9c1.9-1.8,4.3-2.6,7.2-2.6c2.3,0,4.2,0.6,5.6,1.8
			c1.4,1.2,2.1,2.7,2.1,4.6c0,1.8-0.6,3.3-1.9,4.6c-1.3,1.3-2.7,2-4.4,2c-1.3,0-2.4-0.4-3.1-1.1c-0.8-0.7-1.2-1.7-1.2-2.8
			c0-1.7,0.9-3,2.7-3.9l0.3,0.4c-1,0.8-1.4,1.7-1.4,2.8c0,0.9,0.4,1.7,1.1,2.4s1.5,1,2.5,1c1.1,0,2-0.4,2.7-1.2
			c0.7-0.8,1.1-1.8,1.1-3c0-1.7-0.7-3.2-2.2-4.5c-1.4-1.3-3.2-1.9-5.3-1.9c-1.9,0-3.5,0.5-4.7,1.7c-1.2,1.1-1.8,2.4-1.8,3.9
			c0,1.8,0.9,3.8,2.8,5.9c2.1,2.4,3.2,4.8,3.2,7.2c0,1.9-0.8,3.8-2.5,5.6c2.7,1.1,4.7,1.7,6.2,1.7c1.7,0,3.3-1.1,4.8-3.2l0.6,0.5
			c-0.9,1.5-2,2.5-3.1,3.2c-1.2,0.7-2.7,1-4.5,1c-1.5,0-3.6-0.5-6.3-1.6c-2.1,1.2-4.1,1.8-5.9,1.8c-1.2,0-2.1-0.2-2.9-0.7
			c-0.8-0.4-1.2-1-1.2-1.7c0-0.7,0.5-1.4,1.4-1.9c1-0.5,2.1-0.8,3.5-0.8C53.6,69,55.6,69.4,58.3,70.3z M55.9,71.9
			c-2.3-1.1-4-1.7-5.1-1.7c-1.5,0-2.2,0.4-2.2,1.2c0,0.4,0.3,0.8,1,1.2s1.4,0.5,2.3,0.5C53.1,73,54.5,72.7,55.9,71.9z"/>
		<path id="XMLID_29_" class="st1" d="M78.8,70.2c-0.8,1.2-1.6,2.1-2.5,2.8c-0.8,0.6-1.6,1-2.3,1c-0.8,0-1.3-0.2-1.4-0.6
			c-0.2-0.4-0.3-1.1-0.3-2.1v-3.8c-0.4,1.1-1.1,2.2-1.9,3.2l-0.6-0.5c1.3-1.8,2.1-3.6,2.5-5.3l2.1-1.1v6.7c0,0.8,0,1.4,0.1,1.6
			c0.1,0.3,0.3,0.4,0.6,0.4c0.6,0,1.6-0.9,3-2.8L78.8,70.2z M75.1,59.6l-1.5,1.9l-1.5-1.9l1.5-1.8L75.1,59.6z"/>
		<path id="XMLID_26_" class="st1" d="M77.9,70.1c0.3-0.4,0.5-0.7,0.7-1.1s0.4-0.7,0.7-1.2c0.2-0.4,0.5-1,0.7-1.7
			c0.3-0.7,0.4-1.2,0.4-1.4v-8.1c0-2,0.6-3.8,1.9-5.5c1.3-1.6,2.6-2.4,4-2.4c0.7,0,1.3,0.3,1.7,0.8c0.4,0.5,0.6,1.2,0.6,2
			c0,1.1-0.5,2.6-1.4,4.6c-0.9,1.9-2.5,4.6-4.7,8v6.1c0,0.9,0,1.5,0.1,1.8s0.3,0.5,0.5,0.5c0.6,0,1.6-0.9,3-2.8l0.6,0.5
			c-1.7,2.5-3.3,3.8-5,3.8c-0.5,0-0.9-0.2-1.1-0.5c-0.3-0.3-0.4-1.1-0.4-2.3v-3.8c-0.4,1.1-1.1,2.2-1.9,3.2L77.9,70.1z M82.5,62.5
			c1.9-3.1,3.1-5.3,3.7-6.7c0.6-1.4,0.9-2.6,0.9-3.6c0-1.6-0.5-2.4-1.4-2.4c-0.9,0-1.6,0.5-2.2,1.5s-0.9,2.3-0.9,4.1V62.5L82.5,62.5
			z"/>
		<path id="XMLID_23_" class="st1" d="M95,70.2c-0.8,1.2-1.6,2.1-2.5,2.8c-0.8,0.6-1.6,1-2.3,1c-0.8,0-1.3-0.2-1.4-0.6
			c-0.2-0.4-0.3-1.1-0.3-2.1v-3.8c-0.4,1.1-1.1,2.2-1.9,3.2L86,70.1c1.3-1.8,2.1-3.6,2.6-5.3l2.1-1.1v6.7c0,0.8,0,1.4,0.1,1.6
			c0.1,0.3,0.3,0.4,0.6,0.4c0.6,0,1.6-0.9,3-2.8L95,70.2z M91.4,59.6l-1.5,1.9l-1.5-1.9l1.5-1.8L91.4,59.6z"/>
	</g>
	<path id="XMLID_4_" class="st1" d="M32.1,56.1c-0.2,0.1-0.4,0.2-0.5,0.3s-0.4,0.2-0.6,0.2c-0.2,0.1-0.4,0.1-0.6,0.2
		c-0.2,0.1-0.4,0.1-0.6,0.1S29.4,57,29.2,57c-0.2,0-0.4,0-0.6,0.1c-0.1,0-0.1,0-0.2,0h-0.1l0,0l0,0h0h0h-0.1c0,0-0.1,0-0.1,0H28
		c-0.2,0-0.4,0-0.6,0s-0.4,0-0.6-0.1c-0.1,0-0.2,0-0.3-0.1l-0.2,0c-0.1,0-0.1,0-0.2,0c-0.2,0-0.4-0.1-0.6-0.2
		c-0.2-0.1-0.4-0.1-0.6-0.2c-0.2-0.1-0.4-0.2-0.6-0.3s-0.4-0.2-0.5-0.3c-0.2-0.1-0.4-0.2-0.5-0.3c-0.2-0.1-0.4-0.2-0.5-0.4l-0.3-0.2
		l0.3-0.2l0,0c0.4-0.3,0.8-0.6,1.3-0.8c0.4-0.2,0.9-0.4,1.4-0.6c0.5-0.2,1-0.3,1.5-0.4c0.5-0.1,1-0.1,1.5-0.1h0l0,0h0h0h0.1
		c0,0,0,0,0.1,0h0.1h0.1c0,0,0.1,0,0.1,0h0.1c0,0,0.1,0,0.1,0h0.1c0.3,0,0.5,0.1,0.7,0.1c0.5,0.1,1,0.2,1.4,0.4
		c0.4,0.2,0.9,0.4,1.3,0.6c0.4,0.3,0.8,0.5,1.2,0.8l0.1,0.1c0,0,0.1,0,0.1,0.1l0.1,0.1c0,0,0,0,0.1,0.1l0.1,0.1c0,0,0.1,0,0.1,0.1
		l0.1,0.1c0.2,0.1,0.4,0.3,0.6,0.4c0.4,0.2,0.9,0.4,1.3,0.5c0.4,0.2,0.9,0.3,1.4,0.3c0.3,0,0.5,0.1,0.7,0.1c0.1,0,0.1,0,0.2,0
		c0.1,0,0.1,0,0.2,0s0.1,0,0.2,0h0.2h0.2h0.2h0.2c0.1,0,0.1,0,0.2,0c0.3,0,0.5-0.1,0.7-0.1c0.5-0.1,0.9-0.2,1.4-0.4s0.9-0.4,1.3-0.6
		c0.4-0.2,0.8-0.5,1.1-0.8v0.4l0,0h0c-0.3-0.3-0.6-0.5-1-0.7c-0.2-0.1-0.4-0.2-0.5-0.3c-0.2-0.1-0.4-0.2-0.5-0.3
		c-0.2-0.1-0.4-0.2-0.6-0.2c-0.2-0.1-0.4-0.1-0.6-0.2c-0.2-0.1-0.4-0.1-0.6-0.1c-0.2,0-0.4-0.1-0.6-0.1s-0.4,0-0.6,0
		c-0.1,0-0.1,0-0.2,0h0h0h0h-0.1c-0.1,0-0.1,0-0.2,0s-0.1,0-0.2,0c-0.2,0-0.4,0-0.6,0c-0.2,0-0.4,0-0.6,0.1c-0.1,0-0.1,0-0.2,0
		c-0.1,0-0.1,0-0.2,0c-0.1,0-0.1,0-0.2,0s-0.1,0-0.2,0c-0.2,0-0.4,0.1-0.6,0.2l-0.1,0l-0.1,0l-0.1,0c-0.1,0-0.1,0-0.2,0
		s-0.1,0-0.2,0.1l-0.2,0.1c0,0-0.1,0-0.1,0c0,0-0.1,0-0.1,0c-0.1,0-0.2,0.1-0.3,0.1l0,0l0,0l0,0l0,0l0,0l0,0l0,0c0,0,0,0,0,0l0.1,0
		c0,0,0.1,0,0.1,0c0,0,0.1,0,0.1,0c0.1,0,0.2-0.1,0.3-0.1c0.1,0,0.2-0.1,0.3-0.1c0.1,0,0.2-0.1,0.3-0.1s0.2-0.1,0.3-0.1
		c0.1,0,0.2-0.1,0.3-0.1s0.2-0.1,0.3-0.1c0.1,0,0.2-0.1,0.3-0.1c0.2-0.1,0.4-0.2,0.5-0.3c0.2-0.1,0.4-0.2,0.5-0.3
		c0.1-0.1,0.2-0.1,0.2-0.2c0,0,0.1-0.1,0.1-0.1l0,0l0,0l0.1-0.1c0,0,0.1-0.1,0.1-0.1s0.1-0.1,0.1-0.1c0,0,0,0,0.1-0.1l0.1-0.1
		l0.1-0.1l0.1-0.1c0.1-0.2,0.3-0.3,0.4-0.4c0.1-0.2,0.2-0.3,0.3-0.5c0.1-0.2,0.2-0.3,0.3-0.5c0.1-0.2,0.2-0.4,0.3-0.5
		c0,0,0-0.1,0.1-0.1l0.1-0.1l0.1-0.1c0,0,0-0.1,0.1-0.1c0.1-0.2,0.1-0.4,0.2-0.5c0.1-0.2,0.1-0.4,0.1-0.5c0-0.2,0.1-0.4,0.1-0.5
		l0.4,0.3l0,0c-0.2,0-0.4,0-0.6,0.1c-0.2,0-0.4,0.1-0.6,0.1s-0.4,0.1-0.6,0.1l-0.1,0l-0.1,0c-0.1,0-0.1,0-0.1,0s-0.1,0-0.1,0
		c-0.2,0.1-0.4,0.1-0.5,0.2S38.5,49,38.3,49l-0.1,0.1L38,49.2h0h0l-0.1,0l-0.1,0l-0.1,0c-0.1,0-0.2,0.1-0.3,0.2l-0.1,0.1
		c0,0-0.1,0.1-0.1,0.1c-0.2,0.1-0.3,0.2-0.4,0.3c0,0-0.1,0.1-0.1,0.1c0,0,0,0-0.1,0l-0.1,0l-0.1,0l0,0l0,0l0,0l0,0l0,0l0,0l-0.2,0.2
		l-0.1,0c0,0-0.1,0.1-0.1,0.1c0,0-0.1,0.1-0.1,0.1c-0.1,0.1-0.1,0.1-0.2,0.2s-0.1,0.1-0.2,0.2c-0.1,0.1-0.1,0.2-0.2,0.2
		c-0.1,0.2-0.2,0.3-0.3,0.4c-0.1,0.1-0.1,0.2-0.1,0.2L35,52.1c0,0,0,0.1-0.1,0.1s0,0.1-0.1,0.1c0,0.1-0.1,0.2-0.1,0.3
		c-0.1,0.2-0.2,0.3-0.3,0.5l0,0l0,0l0,0l0,0c0.1-0.2,0.2-0.4,0.3-0.6c0.1-0.2,0.2-0.4,0.3-0.5c0.1-0.2,0.2-0.4,0.3-0.5
		c0.1-0.2,0.1-0.4,0.2-0.6c0.1-0.2,0.1-0.4,0.2-0.6c0-0.2,0.1-0.4,0.1-0.6c0-0.2,0-0.4,0-0.6v0v0l0,0l0,0l0,0l0,0V49v-0.1
		c0,0,0,0,0-0.1v-0.1v0v0c0,0,0-0.1,0-0.1c0-0.2-0.1-0.4-0.1-0.6s-0.1-0.4-0.1-0.6l0-0.1l0-0.1c0,0,0-0.1-0.1-0.1c0,0,0,0,0-0.1
		l0-0.1c-0.1-0.2-0.2-0.4-0.2-0.5c-0.1-0.2-0.2-0.4-0.3-0.5c-0.2-0.3-0.3-0.4-0.4-0.6c-0.2-0.3-0.5-0.6-0.8-0.9h0.4l0,0
		c-0.3,0.3-0.5,0.6-0.8,0.9c-0.1,0.2-0.2,0.3-0.3,0.5c-0.1,0.2-0.2,0.4-0.3,0.5c-0.1,0.2-0.2,0.4-0.2,0.5c-0.1,0.2-0.1,0.4-0.2,0.5
		S32,47.8,32,48c0,0.2-0.1,0.4-0.1,0.6c0,0.2,0,0.4,0,0.6v0.2c0,0,0,0.1,0,0.1c0,0.1,0,0.2,0,0.3c0,0.2,0,0.4,0.1,0.6
		s0.1,0.4,0.1,0.6c0.1,0.2,0.1,0.4,0.2,0.5c0.1,0.2,0.2,0.4,0.2,0.5c0.1,0.2,0.2,0.4,0.3,0.5c0.1,0.2,0.2,0.4,0.2,0.6l0,0l0,0l0,0
		l0,0c-0.1-0.2-0.2-0.3-0.3-0.5c-0.1-0.2-0.2-0.3-0.3-0.5c0-0.1-0.1-0.2-0.1-0.3s-0.1-0.2-0.1-0.2c-0.1-0.2-0.2-0.3-0.3-0.4
		c-0.1-0.2-0.2-0.3-0.4-0.4c-0.1-0.1-0.3-0.3-0.4-0.4l-0.1,0l0,0l0,0l0,0l0,0l0,0l0,0c0,0-0.1-0.1-0.1-0.1l-0.1-0.1
		c0,0-0.1-0.1-0.1-0.1l-0.1,0l-0.1,0c0,0-0.1-0.1-0.1-0.1l-0.1-0.1l-0.1-0.1c-0.2-0.1-0.3-0.2-0.5-0.3c-0.2-0.1-0.4-0.2-0.5-0.3
		l-0.1-0.1L29,49.1c0,0-0.1,0-0.1-0.1c0,0,0,0-0.1,0l-0.1,0c-0.2-0.1-0.4-0.1-0.5-0.2c-0.2-0.1-0.4-0.1-0.5-0.2
		c-0.2,0-0.4-0.1-0.6-0.1c-0.1,0-0.1,0-0.1,0l-0.1,0l-0.1,0c-0.1,0-0.1,0-0.1,0c-0.2,0-0.4,0-0.6,0l0.4-0.3l0,0c0,0.2,0,0.4,0,0.7
		c0,0.2,0.1,0.4,0.1,0.7c0,0.2,0.1,0.4,0.2,0.6c0.1,0.2,0.2,0.4,0.3,0.6c0.1,0.2,0.2,0.4,0.4,0.6c0.1,0.2,0.3,0.4,0.4,0.5
		c0.2,0.2,0.3,0.4,0.5,0.5c0.2,0.2,0.4,0.3,0.5,0.5c-0.2-0.1-0.4-0.3-0.6-0.4c-0.2-0.1-0.4-0.3-0.6-0.5c-0.2-0.2-0.4-0.4-0.5-0.5
		c-0.2-0.2-0.3-0.4-0.4-0.6c-0.2-0.2-0.3-0.4-0.4-0.6c-0.1-0.2-0.2-0.4-0.3-0.7c-0.1-0.2-0.1-0.4-0.2-0.7c-0.1-0.2-0.1-0.5-0.1-0.7
		l0,0l0-0.3l0.4,0c0.2,0,0.4,0,0.6,0.1c0.1,0,0.1,0,0.2,0l0.2,0l0.2,0c0.1,0,0.1,0,0.2,0c0.2,0,0.4,0.1,0.6,0.1
		c0.2,0.1,0.4,0.1,0.6,0.2c0.1,0,0.1,0,0.2,0.1l0.1,0.1c0.1,0,0.2,0.1,0.3,0.1c0.2,0.1,0.4,0.2,0.5,0.3c0.2,0.1,0.4,0.2,0.5,0.3
		s0.4,0.2,0.5,0.3l0.1,0.1l0.1,0.1c0,0,0.1,0.1,0.1,0.1l0.1,0l0.1,0c0,0,0.1,0.1,0.1,0.1l0.1,0.1c0,0,0.1,0.1,0.1,0.1l0,0l0,0l0,0
		l0,0l0,0l0,0l0.1,0.1c0.1,0.1,0.3,0.3,0.4,0.4c0.1,0.2,0.3,0.3,0.4,0.5c0.1,0.1,0.1,0.2,0.2,0.3s0.1,0.2,0.1,0.3
		c0.1,0.2,0.2,0.4,0.2,0.5c0.1,0.2,0.1,0.4,0.2,0.5c0,0.2,0.1,0.4,0.1,0.5l0,0v0l0,0l0,0c-0.2-0.1-0.3-0.3-0.4-0.4
		c-0.1-0.2-0.3-0.3-0.4-0.5s-0.2-0.4-0.3-0.5s-0.2-0.4-0.2-0.6c-0.1-0.2-0.1-0.4-0.2-0.6c0-0.2-0.1-0.4-0.1-0.6c0-0.1,0-0.2,0-0.3
		c0-0.1,0-0.1,0-0.2v-0.2c0-0.2,0-0.4,0-0.6c0-0.2,0-0.4,0.1-0.6c0-0.2,0.1-0.4,0.1-0.6c0.1-0.2,0.1-0.4,0.2-0.6
		c0.1-0.2,0.2-0.4,0.3-0.6c0.1-0.2,0.2-0.4,0.3-0.5c0.1-0.2,0.2-0.4,0.4-0.5c0.3-0.4,0.5-0.7,0.8-1l0,0l0.2-0.2l0.2,0.2
		c0.3,0.3,0.6,0.6,0.8,1c0.1,0.2,0.2,0.4,0.4,0.5c0.1,0,0.2,0.2,0.3,0.4c0.1,0.2,0.2,0.4,0.2,0.6s0.1,0.4,0.2,0.6
		c0.1,0.2,0.1,0.4,0.1,0.6s0.1,0.4,0.1,0.6c0,0.1,0,0.1,0,0.2v0v0v0.1c0,0,0,0.1,0,0.1V49V49l0,0l0,0v0v0.1c0,0.2,0,0.4-0.1,0.6
		c-0.1,0.4-0.2,0.8-0.3,1.2c-0.1,0.2-0.2,0.4-0.2,0.6c-0.1,0.2-0.2,0.4-0.3,0.5c-0.1,0.2-0.2,0.4-0.4,0.5s-0.3,0.3-0.4,0.5l0,0l0,0
		v0l0,0c0-0.2,0-0.4,0.1-0.6c0-0.2,0.1-0.4,0.2-0.5c0-0.1,0.1-0.2,0.1-0.3c0.1-0.1,0.1-0.2,0.1-0.3c0.1-0.2,0.2-0.4,0.3-0.5
		c0.1-0.2,0.2-0.3,0.4-0.5c0.1-0.1,0.1-0.2,0.2-0.2c0,0,0.1-0.1,0.1-0.1c0,0,0.1-0.1,0.1-0.1l0.1-0.1l0.1-0.1l0,0l0,0l0,0l0,0
		l0.1-0.1l0.1-0.1c0,0,0,0,0.1-0.1c0,0,0.1-0.1,0.1-0.1c0.2-0.1,0.3-0.3,0.5-0.4c0.2-0.1,0.4-0.2,0.5-0.4c0.2-0.1,0.4-0.2,0.5-0.3
		s0.4-0.2,0.6-0.3c0.2-0.1,0.4-0.2,0.6-0.2c0.2-0.1,0.4-0.1,0.6-0.2c0.2-0.1,0.4-0.1,0.6-0.1c0.2,0,0.4-0.1,0.6-0.1s0.4,0,0.6-0.1
		l0,0l0.4,0l0,0.4c0,0.2,0,0.4-0.1,0.6s-0.1,0.4-0.1,0.6s-0.1,0.4-0.2,0.6c0,0,0,0.1-0.1,0.1l-0.1,0.1L41.2,50c0,0,0,0.1-0.1,0.1
		c-0.1,0.2-0.2,0.4-0.3,0.5c-0.1,0.2-0.2,0.4-0.3,0.5c-0.1,0.2-0.2,0.4-0.4,0.5c-0.1,0.2-0.3,0.3-0.4,0.5l-0.1,0.1l-0.1,0.1
		c0,0-0.1,0.1-0.1,0.1c0,0-0.1,0.1-0.1,0.1c0,0-0.1,0.1-0.1,0.1l-0.1,0.1l0,0l0,0c0,0-0.1,0.1-0.1,0.1c-0.1,0.1-0.2,0.1-0.3,0.2
		c-0.1,0.1-0.2,0.1-0.3,0.2c-0.1,0.1-0.2,0.1-0.3,0.2c-0.2,0.1-0.4,0.2-0.6,0.3c-0.2,0.1-0.4,0.1-0.6,0.2s-0.4,0.1-0.6,0.1
		c-0.1,0-0.2,0-0.3,0.1c-0.1,0-0.2,0-0.3,0c-0.1,0-0.2,0-0.3,0c0,0-0.1,0-0.1,0h-0.1h-0.1c0,0,0,0,0,0l0,0l0,0l0,0l0,0h0l0,0l0,0
		c0,0,0,0,0.1-0.1s0,0,0.1-0.1c0,0,0,0,0.1-0.1c0,0,0,0,0.1,0c0,0,0.1-0.1,0.1-0.1c0,0,0,0,0.1,0l0.1,0c0,0,0.1-0.1,0.1-0.1
		s0.1,0,0.1-0.1c0.1,0,0.1,0,0.2-0.1l0.1,0l0.1,0c0.2-0.1,0.4-0.2,0.6-0.2s0.4-0.1,0.6-0.2c0.2,0,0.4-0.1,0.6-0.1s0.4,0,0.6,0
		c0.1,0,0.1,0,0.2,0s0.1,0,0.2,0H39h0h0h0c0.1,0,0.1,0,0.2,0c0.2,0,0.4,0,0.7,0s0.4,0,0.6,0.1c0.2,0,0.4,0.1,0.6,0.1
		c0.2,0,0.4,0.1,0.6,0.2c0.2,0.1,0.4,0.1,0.6,0.2s0.4,0.2,0.6,0.3s0.4,0.2,0.6,0.3c0.4,0.2,0.7,0.4,1.1,0.7h0l0,0l0.3,0.2l-0.3,0.2
		c-0.4,0.3-0.8,0.6-1.3,0.8c-0.4,0.2-0.9,0.4-1.4,0.6c-0.5,0.2-1,0.3-1.5,0.4C40.3,57,40,57,39.8,57c-0.1,0-0.1,0-0.2,0h-0.2h-0.2
		H39h-0.2c-0.1,0-0.1,0-0.2,0s-0.1,0-0.2,0s-0.1,0-0.2,0c-0.3,0-0.5,0-0.7-0.1c-0.5-0.1-1-0.2-1.5-0.4c-0.5-0.2-0.9-0.4-1.4-0.6
		c-0.2-0.1-0.4-0.3-0.6-0.4l0.1,0c0,0-0.1,0-0.1-0.1l-0.1-0.1c0,0-0.1,0-0.1-0.1l-0.1-0.1c0,0-0.1,0-0.1-0.1l-0.2-0.1
		c-0.4-0.3-0.8-0.5-1.2-0.8c-0.4-0.2-0.8-0.4-1.3-0.6c-0.4-0.2-0.9-0.3-1.4-0.4c-0.2,0-0.5-0.1-0.7-0.1h-0.1c0,0-0.1,0-0.1,0h-0.1
		c0,0-0.1,0-0.1,0h-0.1h0c0,0,0,0,0,0h-0.1h-0.1l0,0l0,0l0,0l0,0c-0.3,0-0.5,0-0.7,0c-0.3,0-0.5,0.1-0.7,0.1
		c-0.5,0.1-0.9,0.2-1.4,0.4c-0.4,0.2-0.9,0.4-1.3,0.6s-0.8,0.5-1.1,0.8l0,0v-0.4c0.2,0.1,0.3,0.2,0.4,0.4c0.2,0.1,0.3,0.2,0.5,0.3
		c0.2,0.1,0.3,0.2,0.5,0.3c0.2,0.1,0.4,0.2,0.5,0.3c0.2,0.1,0.4,0.2,0.5,0.2c0.2,0.1,0.4,0.1,0.6,0.2c0.2,0.1,0.4,0.1,0.6,0.1
		c0.2,0,0.4,0.1,0.6,0.1c0.2,0,0.4,0.1,0.6,0.1h0.2c0,0,0.1,0,0.1,0h0.1h0h0l0,0l0,0h0.1c0.1,0,0.1,0,0.2,0c0.2,0,0.4,0,0.6,0
		c0.2,0,0.4,0,0.6-0.1c0.2,0,0.4-0.1,0.6-0.1c0.1,0,0.1,0,0.2,0c0.1,0,0.1,0,0.2,0s0.1,0,0.2,0c0.1,0,0.1,0,0.2,0
		c0.2-0.1,0.4-0.1,0.6-0.2C31.7,56.3,31.9,56.2,32.1,56.1z"/>
	<path id="XMLID_5_" class="st2" d="M27.1,60.8"/>
</g>
<g id="XMLID_2_">
	<path id="XMLID_24_" class="st1" d="M17.3,36.6c-0.3,0.3-0.6,0.5-1.2,0.7s-1.1,0.3-1.7,0.3c-0.9,0-1.7-0.3-2.2-0.9
		s-0.9-1.4-0.9-2.4l0-0.6c0-0.7,0.1-1.3,0.4-1.8s0.6-0.9,1.1-1.2s1-0.4,1.6-0.4c0.9,0,1.6,0.2,2.1,0.6s0.8,1,0.9,1.8h-1.7
		c-0.1-0.4-0.2-0.7-0.4-0.8s-0.5-0.3-0.8-0.3c-0.4,0-0.8,0.2-1,0.5S13,33,13,33.7v0.4c0,0.7,0.1,1.2,0.4,1.6s0.6,0.5,1.1,0.5
		c0.4,0,0.8-0.1,1-0.3v-1.1h-1.2v-1.2h2.9V36.6z"/>
	<path id="XMLID_27_" class="st1" d="M24.3,35.1c0,0.5-0.2,0.9-0.4,1.3s-0.6,0.7-1,0.9s-0.9,0.3-1.5,0.3c-0.9,0-1.7-0.3-2.2-0.9
		s-0.8-1.5-0.8-2.6v-0.4c0-0.7,0.1-1.3,0.4-1.8s0.6-0.9,1-1.2s1-0.4,1.6-0.4c0.9,0,1.6,0.2,2.1,0.7s0.8,1.1,0.9,1.9h-1.7
		c0-0.4-0.1-0.7-0.3-0.9s-0.5-0.3-0.9-0.3c-0.4,0-0.7,0.2-0.9,0.5s-0.3,0.8-0.3,1.5v0.5c0,0.8,0.1,1.3,0.3,1.6s0.5,0.5,1,0.5
		c0.4,0,0.7-0.1,0.9-0.3s0.3-0.5,0.3-0.9H24.3z"/>
	<path id="XMLID_30_" class="st1" d="M29.1,35.6c0-0.3-0.1-0.4-0.3-0.6s-0.5-0.3-0.9-0.4s-0.8-0.3-1.1-0.4c-0.9-0.5-1.4-1.1-1.4-1.9
		c0-0.4,0.1-0.7,0.3-1s0.6-0.5,1-0.7s0.9-0.3,1.4-0.3c0.5,0,1,0.1,1.4,0.3s0.7,0.4,0.9,0.8s0.3,0.7,0.3,1.2h-1.7
		c0-0.3-0.1-0.5-0.3-0.7s-0.4-0.2-0.7-0.2c-0.3,0-0.5,0.1-0.7,0.2s-0.3,0.3-0.3,0.5c0,0.2,0.1,0.3,0.3,0.5s0.5,0.3,1,0.5
		s0.9,0.3,1.2,0.5c0.8,0.4,1.2,1.1,1.2,1.8c0,0.6-0.2,1.1-0.7,1.5s-1.1,0.5-1.9,0.5c-0.6,0-1.1-0.1-1.6-0.3s-0.8-0.5-1.1-0.8
		s-0.4-0.8-0.4-1.2h1.7c0,0.4,0.1,0.7,0.3,0.8s0.5,0.3,1,0.3c0.3,0,0.5-0.1,0.7-0.2S29.1,35.8,29.1,35.6z"/>
	<path id="XMLID_33_" class="st1" d="M36.4,34.4h-2.7v1.7h3.2v1.3H32v-7.1h4.9v1.3h-3.2v1.5h2.7V34.4z"/>
	<path id="XMLID_37_" class="st1" d="M46.6,37.5h-1.7v-3h-2.5v3h-1.7v-7.1h1.7v2.8h2.5v-2.8h1.7V37.5z"/>
	<path id="XMLID_39_" class="st1" d="M47.8,30.8c0-0.2,0.1-0.4,0.3-0.6c0.2-0.2,0.4-0.2,0.7-0.2s0.5,0.1,0.7,0.2
		c0.2,0.2,0.3,0.3,0.3,0.6s-0.1,0.4-0.3,0.6c-0.2,0.2-0.4,0.2-0.7,0.2s-0.5-0.1-0.7-0.2C47.9,31.2,47.8,31,47.8,30.8z M49.6,37.5
		h-1.7v-5.3h1.7V37.5z"/>
	<path id="XMLID_42_" class="st1" d="M53.7,36c0-0.1-0.1-0.3-0.2-0.3s-0.4-0.2-0.8-0.3s-0.7-0.2-1-0.4c-0.3-0.1-0.5-0.3-0.6-0.5
		s-0.2-0.5-0.2-0.7c0-0.5,0.2-0.9,0.6-1.2c0.4-0.3,0.9-0.5,1.6-0.5c0.7,0,1.3,0.2,1.7,0.5c0.4,0.3,0.6,0.7,0.6,1.2h-1.7
		c0-0.4-0.2-0.6-0.7-0.6c-0.2,0-0.3,0-0.4,0.1s-0.2,0.2-0.2,0.4c0,0.1,0.1,0.3,0.2,0.4c0.1,0.1,0.4,0.2,0.7,0.2
		c0.3,0.1,0.6,0.1,0.8,0.2c0.8,0.3,1.2,0.8,1.2,1.5c0,0.5-0.2,0.9-0.6,1.2c-0.4,0.3-1,0.5-1.7,0.5c-0.5,0-0.9-0.1-1.2-0.2
		c-0.4-0.2-0.6-0.4-0.8-0.7s-0.3-0.6-0.3-0.9h1.5c0,0.2,0.1,0.4,0.2,0.5s0.4,0.2,0.6,0.2c0.2,0,0.4,0,0.5-0.1S53.7,36.1,53.7,36z"/>
	<path id="XMLID_44_" class="st1" d="M58.2,30.9v1.3h0.9v1.1h-0.9v2.4c0,0.2,0,0.3,0.1,0.4c0.1,0.1,0.2,0.1,0.4,0.1
		c0.2,0,0.3,0,0.4,0v1.2c-0.3,0.1-0.6,0.1-0.9,0.1c-0.6,0-1-0.1-1.3-0.4c-0.3-0.3-0.4-0.7-0.4-1.2v-2.6h-0.7v-1.1h0.7v-1.3H58.2z"/>
	<path id="XMLID_46_" class="st1" d="M59.8,34.8c0-0.5,0.1-1,0.3-1.4s0.5-0.7,0.9-0.9c0.4-0.2,0.8-0.3,1.4-0.3
		c0.8,0,1.4,0.2,1.9,0.7c0.5,0.5,0.7,1.2,0.7,2v0.1c0,0.8-0.2,1.5-0.7,2c-0.5,0.5-1.1,0.7-1.9,0.7c-0.8,0-1.4-0.2-1.8-0.7
		c-0.5-0.5-0.7-1.1-0.7-1.8L59.8,34.8z M61.5,34.9c0,0.5,0.1,0.8,0.2,1.1c0.2,0.2,0.4,0.3,0.7,0.3c0.6,0,0.9-0.5,0.9-1.4v-0.2
		c0-0.9-0.3-1.4-0.9-1.4c-0.5,0-0.8,0.4-0.9,1.2L61.5,34.9z"/>
	<path id="XMLID_49_" class="st1" d="M69.1,33.7l-0.5,0c-0.5,0-0.8,0.2-1,0.5v3.3h-1.6v-5.3h1.5l0.1,0.7c0.3-0.5,0.7-0.8,1.2-0.8
		c0.2,0,0.3,0,0.5,0.1L69.1,33.7z"/>
	<path id="XMLID_51_" class="st1" d="M72.1,35.2l0.9-3h1.8l-2.2,6.2l-0.1,0.2c-0.3,0.7-0.8,1-1.6,1c-0.2,0-0.4,0-0.7-0.1v-1.2h0.2
		c0.2,0,0.4,0,0.5-0.1s0.2-0.2,0.3-0.4l0.1-0.4l-1.8-5.3h1.8L72.1,35.2z"/>
	<path id="XMLID_53_" class="st1" d="M83,35c0,0.8-0.2,1.4-0.5,1.8s-0.9,0.7-1.5,0.7c-0.4,0-0.7-0.1-0.9-0.2s-0.5-0.3-0.6-0.6
		l-0.2,0.7h-0.7v-7.6h1v3c0.2-0.2,0.4-0.4,0.6-0.5c0.2-0.1,0.5-0.2,0.9-0.2c0.7,0,1.2,0.3,1.5,0.8c0.4,0.5,0.5,1.2,0.5,2.1V35z
		 M82,34.9c0-0.6-0.1-1.1-0.3-1.5c-0.2-0.4-0.6-0.6-1-0.6c-0.3,0-0.5,0.1-0.7,0.2c-0.2,0.1-0.4,0.3-0.5,0.6V36
		c0.1,0.3,0.3,0.5,0.5,0.6s0.5,0.2,0.8,0.2c0.5,0,0.8-0.2,1-0.5C81.9,36,82,35.5,82,35V34.9z"/>
	<path id="XMLID_56_" class="st1" d="M86.1,35.5l0.2,0.7h0l1.3-4h1.1l-2.2,6.1c-0.1,0.4-0.3,0.7-0.6,0.9s-0.6,0.4-1,0.4
		c-0.1,0-0.2,0-0.3,0c-0.1,0-0.2,0-0.3-0.1l0.1-0.8c0,0,0,0,0.2,0c0.1,0,0.2,0,0.3,0c0.2,0,0.4-0.1,0.5-0.3c0.1-0.2,0.2-0.4,0.3-0.6
		l0.2-0.6l-2-5.2H85L86.1,35.5z"/>
</g>
</svg>
