<?xml version="1.0" encoding="utf-8"?>
<!-- Generator: Adobe Illustrator 19.0.0, SVG Export Plug-In . SVG Version: 6.00 Build 0)  -->
<svg version="1.1" id="Layer_1" xmlns="http://www.w3.org/2000/svg" xmlns:xlink="http://www.w3.org/1999/xlink" x="0px" y="0px"
	 viewBox="0 0 100 100" style="enable-background:new 0 0 100 100;" xml:space="preserve">
<style type="text/css">
	.st0{fill:#E6E7E8;}
	.st1{fill:#231F20;}
	.st2{fill:#00CAFF;}
	.st3{fill:#232F3E;}
</style>
<rect class="st0" width="100" height="100"/>
<g id="Guides_For_Artboard">
</g>
<g>
	<g>
		<path class="st1" d="M11.8,42.1l1.2,0.3c-0.3,1-0.7,1.7-1.3,2.2c-0.6,0.5-1.4,0.8-2.4,0.8c-1,0-1.8-0.2-2.4-0.6
			c-0.6-0.4-1.1-1-1.4-1.7C5.2,42.4,5,41.6,5,40.7c0-0.9,0.2-1.8,0.5-2.5c0.4-0.7,0.9-1.2,1.5-1.6c0.7-0.4,1.4-0.5,2.2-0.5
			c0.9,0,1.7,0.2,2.3,0.7c0.6,0.5,1,1.1,1.3,1.9L11.6,39c-0.2-0.6-0.5-1.1-0.9-1.4c-0.4-0.3-0.9-0.4-1.5-0.4c-0.7,0-1.3,0.2-1.7,0.5
			c-0.4,0.3-0.8,0.8-1,1.3c-0.2,0.6-0.3,1.1-0.3,1.7c0,0.8,0.1,1.4,0.3,2c0.2,0.6,0.6,1,1.1,1.3s1,0.4,1.5,0.4
			c0.7,0,1.3-0.2,1.7-0.6C11.3,43.5,11.6,42.9,11.8,42.1z"/>
		<path class="st1" d="M14.4,45.3v-9h1.2v8H20v1.1C20,45.3,14.4,45.3,14.4,45.3z"/>
		<path class="st1" d="M21.5,45.3v-9H28v1.1h-5.3v2.8h5v1.1h-5v3.1h5.5v1.1H21.5L21.5,45.3z"/>
		<path class="st1" d="M32.4,45.3l-3.5-9h1.3l2.3,6.5c0.2,0.5,0.4,1,0.5,1.5c0.1-0.5,0.3-1,0.5-1.5l2.4-6.5h1.2l-3.5,9H32.4z"/>
		<path class="st1" d="M38.3,45.3v-9h6.5v1.1h-5.3v2.8h5v1.1h-5v3.1H45v1.1H38.3L38.3,45.3z"/>
		<path class="st1" d="M46.7,45.3v-9h4c0.8,0,1.4,0.1,1.8,0.3s0.8,0.4,1,0.9c0.3,0.4,0.4,0.9,0.4,1.3c0,0.6-0.2,1.2-0.6,1.6
			c-0.4,0.4-1.1,0.7-1.9,0.8c0.3,0.2,0.5,0.3,0.7,0.4c0.4,0.3,0.7,0.7,1,1.2l1.6,2.5h-1.5l-1.2-1.9c-0.4-0.5-0.6-1-0.9-1.3
			c-0.2-0.3-0.4-0.5-0.6-0.6c-0.2-0.1-0.4-0.2-0.5-0.3c-0.1,0-0.4,0-0.7,0h-1.4v4L46.7,45.3z M47.9,40.3h2.6c0.5,0,1-0.1,1.3-0.2
			c0.3-0.1,0.5-0.3,0.7-0.5c0.2-0.3,0.3-0.5,0.3-0.8c0-0.4-0.2-0.8-0.4-1.1s-0.8-0.4-1.5-0.4h-2.9L47.9,40.3L47.9,40.3z"/>
	</g>
	<g>
		<path class="st1" d="M58.3,48.3c1.2-1.2,1.7-2.3,1.7-3.4c0-0.8-0.3-1.8-0.8-3c-0.5-1.2-1.4-2.4-2.5-3.8c-1.2-1.4-1.9-2.6-2.3-3.5
			c-0.4-1-0.6-1.9-0.6-2.9c0-2.2,1-4.1,2.9-5.9c1.9-1.8,4.3-2.6,7.2-2.6c2.3,0,4.2,0.6,5.6,1.8s2.1,2.7,2.1,4.6
			c0,1.8-0.6,3.3-1.9,4.6c-1.3,1.3-2.7,2-4.4,2c-1.3,0-2.4-0.4-3.1-1.1c-0.8-0.7-1.2-1.7-1.2-2.8c0-1.7,0.9-3,2.7-3.9l0.3,0.4
			c-1,0.8-1.4,1.7-1.4,2.8c0,0.9,0.4,1.7,1.1,2.4c0.7,0.7,1.5,1,2.5,1c1.1,0,2-0.4,2.7-1.2c0.7-0.8,1.1-1.8,1.1-3
			c0-1.7-0.7-3.2-2.2-4.5s-3.2-1.9-5.3-1.9c-1.9,0-3.5,0.5-4.7,1.7s-1.8,2.4-1.8,3.9c0,1.8,0.9,3.8,2.8,5.9c2.1,2.4,3.2,4.8,3.2,7.2
			c0,1.9-0.8,3.8-2.5,5.6c2.7,1.1,4.7,1.7,6.2,1.7c1.7,0,3.3-1.1,4.8-3.2l0.6,0.5c-0.9,1.5-2,2.5-3.1,3.2c-1.2,0.7-2.7,1-4.5,1
			c-1.5,0-3.6-0.5-6.3-1.6c-2.1,1.2-4.1,1.8-5.9,1.8c-1.2,0-2.1-0.2-2.9-0.7c-0.8-0.4-1.2-1-1.2-1.7c0-0.7,0.5-1.4,1.4-1.9
			c1-0.5,2.1-0.8,3.5-0.8C53.6,47,55.6,47.4,58.3,48.3z M55.9,49.9c-2.3-1.1-4-1.7-5.1-1.7c-1.5,0-2.2,0.4-2.2,1.2
			c0,0.4,0.3,0.8,1,1.2c0.7,0.4,1.4,0.5,2.3,0.5C53.1,51,54.5,50.6,55.9,49.9z"/>
		<path class="st1" d="M78.8,48.2c-0.8,1.2-1.6,2.1-2.5,2.8c-0.8,0.6-1.6,1-2.3,1c-0.8,0-1.3-0.2-1.4-0.6c-0.2-0.4-0.3-1.1-0.3-2.1
			v-3.8c-0.4,1.1-1.1,2.2-1.9,3.2L69.8,48c1.3-1.8,2.1-3.6,2.5-5.3l2.1-1.1v6.7c0,0.8,0,1.4,0.1,1.6c0.1,0.3,0.3,0.4,0.6,0.4
			c0.6,0,1.6-0.9,3-2.8L78.8,48.2z M75.1,37.6l-1.5,1.9l-1.5-1.9l1.5-1.8L75.1,37.6z"/>
		<path class="st1" d="M77.9,48c0.3-0.4,0.5-0.7,0.7-1.1c0.2-0.3,0.4-0.7,0.7-1.2c0.2-0.4,0.5-1,0.7-1.7c0.3-0.7,0.4-1.2,0.4-1.4
			v-8.1c0-2,0.6-3.8,1.9-5.5c1.3-1.6,2.6-2.4,4-2.4c0.7,0,1.3,0.3,1.7,0.8c0.4,0.5,0.6,1.2,0.6,2c0,1.1-0.5,2.6-1.4,4.6
			c-0.9,1.9-2.5,4.6-4.7,8v6.1c0,0.9,0,1.5,0.1,1.8c0.1,0.3,0.3,0.5,0.5,0.5c0.6,0,1.6-0.9,3-2.8l0.6,0.5c-1.7,2.5-3.3,3.8-5,3.8
			c-0.5,0-0.9-0.2-1.1-0.5c-0.3-0.3-0.4-1.1-0.4-2.3v-3.8c-0.4,1.1-1.1,2.2-1.9,3.2L77.9,48z M82.5,40.5c1.9-3.1,3.1-5.3,3.7-6.7
			c0.6-1.4,0.9-2.6,0.9-3.6c0-1.6-0.5-2.4-1.4-2.4c-0.9,0-1.6,0.5-2.2,1.5s-0.9,2.3-0.9,4.1V40.5L82.5,40.5z"/>
		<path class="st1" d="M95,48.2c-0.8,1.2-1.6,2.1-2.5,2.8c-0.8,0.6-1.6,1-2.3,1c-0.8,0-1.3-0.2-1.4-0.6c-0.2-0.4-0.3-1.1-0.3-2.1
			v-3.8c-0.4,1.1-1.1,2.2-1.9,3.2L86,48c1.3-1.8,2.1-3.6,2.6-5.3l2.1-1.1v6.7c0,0.8,0,1.4,0.1,1.6c0.1,0.3,0.3,0.4,0.6,0.4
			c0.6,0,1.6-0.9,3-2.8L95,48.2z M91.4,37.6l-1.5,1.9l-1.5-1.9l1.5-1.8L91.4,37.6z"/>
	</g>
	<path class="st1" d="M32.1,34.1c-0.2,0.1-0.4,0.2-0.5,0.3s-0.4,0.2-0.6,0.2c-0.2,0.1-0.4,0.1-0.6,0.2c-0.2,0.1-0.4,0.1-0.6,0.1
		c-0.2,0-0.4,0.1-0.6,0.1c-0.2,0-0.4,0-0.6,0.1c-0.1,0-0.1,0-0.2,0h-0.1l0,0l0,0h0h0h-0.1c0,0-0.1,0-0.1,0H28c-0.2,0-0.4,0-0.6,0
		s-0.4,0-0.6-0.1c-0.1,0-0.2,0-0.3-0.1l-0.2,0c-0.1,0-0.1,0-0.2,0c-0.2,0-0.4-0.1-0.6-0.2c-0.2-0.1-0.4-0.1-0.6-0.2
		c-0.2-0.1-0.4-0.2-0.6-0.3s-0.4-0.2-0.5-0.3c-0.2-0.1-0.4-0.2-0.5-0.3c-0.2-0.1-0.4-0.2-0.5-0.4l-0.3-0.2l0.3-0.2l0,0
		c0.4-0.3,0.8-0.6,1.3-0.8c0.4-0.2,0.9-0.4,1.4-0.6c0.5-0.2,1-0.3,1.5-0.4c0.5-0.1,1-0.1,1.5-0.1h0l0,0h0h0h0.1c0,0,0,0,0.1,0h0.1
		h0.1c0,0,0.1,0,0.1,0h0.1c0,0,0.1,0,0.1,0h0.1c0.3,0,0.5,0.1,0.7,0.1c0.5,0.1,1,0.2,1.4,0.4c0.4,0.2,0.9,0.4,1.3,0.6
		c0.4,0.3,0.8,0.5,1.2,0.8l0.1,0.1c0,0,0.1,0,0.1,0.1l0.1,0.1c0,0,0,0,0.1,0.1l0.1,0.1c0,0,0.1,0,0.1,0.1l0.1,0.1
		c0.2,0.1,0.4,0.3,0.6,0.4c0.4,0.2,0.9,0.4,1.3,0.5c0.4,0.2,0.9,0.3,1.4,0.3c0.3,0,0.5,0.1,0.7,0.1c0.1,0,0.1,0,0.2,0
		c0.1,0,0.1,0,0.2,0s0.1,0,0.2,0h0.2h0.2h0.2h0.2c0.1,0,0.1,0,0.2,0c0.3,0,0.5-0.1,0.7-0.1c0.5-0.1,0.9-0.2,1.4-0.4
		c0.4-0.2,0.9-0.4,1.3-0.6c0.4-0.2,0.8-0.5,1.1-0.8v0.4l0,0h0c-0.3-0.3-0.6-0.5-1-0.7c-0.2-0.1-0.4-0.2-0.5-0.3
		c-0.2-0.1-0.4-0.2-0.5-0.3c-0.2-0.1-0.4-0.2-0.6-0.2c-0.2-0.1-0.4-0.1-0.6-0.2c-0.2-0.1-0.4-0.1-0.6-0.1c-0.2,0-0.4-0.1-0.6-0.1
		s-0.4,0-0.6,0c-0.1,0-0.1,0-0.2,0h0h0h0h-0.1c-0.1,0-0.1,0-0.2,0s-0.1,0-0.2,0c-0.2,0-0.4,0-0.6,0c-0.2,0-0.4,0-0.6,0.1
		c-0.1,0-0.1,0-0.2,0c-0.1,0-0.1,0-0.2,0c-0.1,0-0.1,0-0.2,0s-0.1,0-0.2,0c-0.2,0-0.4,0.1-0.6,0.2l-0.1,0l-0.1,0l-0.1,0
		c-0.1,0-0.1,0-0.2,0s-0.1,0-0.2,0.1l-0.2,0.1c0,0-0.1,0-0.1,0c0,0-0.1,0-0.1,0c-0.1,0-0.2,0.1-0.3,0.1l0,0l0,0l0,0l0,0l0,0l0,0l0,0
		c0,0,0,0,0,0l0.1,0c0,0,0.1,0,0.1,0c0,0,0.1,0,0.1,0c0.1,0,0.2-0.1,0.3-0.1c0.1,0,0.2-0.1,0.3-0.1c0.1,0,0.2-0.1,0.3-0.1
		s0.2-0.1,0.3-0.1c0.1,0,0.2-0.1,0.3-0.1s0.2-0.1,0.3-0.1c0.1,0,0.2-0.1,0.3-0.1c0.2-0.1,0.4-0.2,0.5-0.3c0.2-0.1,0.4-0.2,0.5-0.3
		c0.1-0.1,0.2-0.1,0.2-0.2c0,0,0.1-0.1,0.1-0.1l0,0l0,0l0.1-0.1c0,0,0.1-0.1,0.1-0.1s0.1-0.1,0.1-0.1c0,0,0,0,0.1-0.1l0.1-0.1
		l0.1-0.1l0.1-0.1c0.1-0.2,0.3-0.3,0.4-0.4c0.1-0.2,0.2-0.3,0.3-0.5c0.1-0.2,0.2-0.3,0.3-0.5c0.1-0.2,0.2-0.4,0.3-0.5
		c0,0,0-0.1,0.1-0.1l0.1-0.1l0.1-0.1c0,0,0-0.1,0.1-0.1c0.1-0.2,0.1-0.4,0.2-0.5c0.1-0.2,0.1-0.4,0.1-0.5c0-0.2,0.1-0.4,0.1-0.5
		l0.4,0.3l0,0c-0.2,0-0.4,0-0.6,0.1c-0.2,0-0.4,0.1-0.6,0.1s-0.4,0.1-0.6,0.1l-0.1,0l-0.1,0c-0.1,0-0.1,0-0.1,0s-0.1,0-0.1,0
		c-0.2,0.1-0.4,0.1-0.5,0.2S38.5,27,38.3,27l-0.1,0.1L38,27.2h0h0l-0.1,0l-0.1,0l-0.1,0c-0.1,0-0.2,0.1-0.3,0.2l-0.1,0.1
		c0,0-0.1,0.1-0.1,0.1c-0.2,0.1-0.3,0.2-0.4,0.3c0,0-0.1,0.1-0.1,0.1c0,0,0,0-0.1,0l-0.1,0l-0.1,0l0,0l0,0l0,0l0,0l0,0l0,0l-0.2,0.2
		l-0.1,0c0,0-0.1,0.1-0.1,0.1c0,0-0.1,0.1-0.1,0.1c-0.1,0.1-0.1,0.1-0.2,0.2s-0.1,0.1-0.2,0.2c-0.1,0.1-0.1,0.2-0.2,0.2
		c-0.1,0.2-0.2,0.3-0.3,0.4c-0.1,0.1-0.1,0.2-0.1,0.2L35,30.1c0,0,0,0.1-0.1,0.1s0,0.1-0.1,0.1s-0.1,0.2-0.1,0.3
		c-0.1,0.2-0.2,0.3-0.3,0.5l0,0l0,0l0,0l0,0c0.1-0.2,0.2-0.4,0.3-0.6c0.1-0.2,0.2-0.4,0.3-0.5c0.1-0.2,0.2-0.4,0.3-0.5
		c0.1-0.2,0.1-0.4,0.2-0.6c0.1-0.2,0.1-0.4,0.2-0.6c0-0.2,0.1-0.4,0.1-0.6c0-0.2,0-0.4,0-0.6v0v0l0,0l0,0l0,0l0,0V27v-0.1
		c0,0,0,0,0-0.1v-0.1v0v0c0,0,0-0.1,0-0.1c0-0.2-0.1-0.4-0.1-0.6s-0.1-0.4-0.1-0.6l0-0.1l0-0.1c0,0,0-0.1-0.1-0.1c0,0,0,0,0-0.1
		l0-0.1c-0.1-0.2-0.2-0.4-0.2-0.5c-0.1-0.2-0.2-0.4-0.3-0.5c-0.2-0.3-0.3-0.4-0.4-0.6c-0.2-0.3-0.5-0.6-0.8-0.9h0.4l0,0
		c-0.3,0.3-0.5,0.6-0.8,0.9c-0.1,0.2-0.2,0.3-0.3,0.5c-0.1,0.2-0.2,0.4-0.3,0.5c-0.1,0.2-0.2,0.4-0.2,0.5c-0.1,0.2-0.1,0.4-0.2,0.5
		C32,25.6,32,25.8,32,26c0,0.2-0.1,0.4-0.1,0.6c0,0.2,0,0.4,0,0.6v0.2c0,0,0,0.1,0,0.1c0,0.1,0,0.2,0,0.3c0,0.2,0,0.4,0.1,0.6
		c0,0.2,0.1,0.4,0.1,0.6c0.1,0.2,0.1,0.4,0.2,0.5c0.1,0.2,0.2,0.4,0.2,0.5c0.1,0.2,0.2,0.4,0.3,0.5c0.1,0.2,0.2,0.4,0.2,0.6l0,0l0,0
		l0,0l0,0c-0.1-0.2-0.2-0.3-0.3-0.5c-0.1-0.2-0.2-0.3-0.3-0.5c0-0.1-0.1-0.2-0.1-0.3s-0.1-0.2-0.1-0.2c-0.1-0.2-0.2-0.3-0.3-0.4
		c-0.1-0.2-0.2-0.3-0.4-0.4c-0.1-0.1-0.3-0.3-0.4-0.4l-0.1,0l0,0l0,0l0,0l0,0l0,0l0,0c0,0-0.1-0.1-0.1-0.1l-0.1-0.1
		c0,0-0.1-0.1-0.1-0.1l-0.1,0l-0.1,0c0,0-0.1-0.1-0.1-0.1l-0.1-0.1l-0.1-0.1c-0.2-0.1-0.3-0.2-0.5-0.3c-0.2-0.1-0.4-0.2-0.5-0.3
		l-0.1-0.1L29,27.1c0,0-0.1,0-0.1-0.1c0,0,0,0-0.1,0l-0.1,0c-0.2-0.1-0.4-0.1-0.5-0.2c-0.2-0.1-0.4-0.1-0.5-0.2
		c-0.2,0-0.4-0.1-0.6-0.1c-0.1,0-0.1,0-0.1,0l-0.1,0l-0.1,0c-0.1,0-0.1,0-0.1,0c-0.2,0-0.4,0-0.6,0l0.4-0.3l0,0c0,0.2,0,0.4,0,0.7
		s0.1,0.4,0.1,0.7s0.1,0.4,0.2,0.6c0.1,0.2,0.2,0.4,0.3,0.6c0.1,0.2,0.2,0.4,0.4,0.6c0.1,0.2,0.3,0.4,0.4,0.5
		c0.2,0.2,0.3,0.4,0.5,0.5c0.2,0.2,0.4,0.3,0.5,0.5c-0.2-0.1-0.4-0.3-0.6-0.4c-0.2-0.1-0.4-0.3-0.6-0.5c-0.2-0.2-0.4-0.4-0.5-0.5
		c-0.2-0.2-0.3-0.4-0.4-0.6c-0.2-0.2-0.3-0.4-0.4-0.6c-0.1-0.2-0.2-0.4-0.3-0.7c-0.1-0.2-0.1-0.4-0.2-0.7c-0.1-0.2-0.1-0.5-0.1-0.7
		l0,0l0-0.3l0.4,0c0.2,0,0.4,0,0.6,0.1c0.1,0,0.1,0,0.2,0l0.2,0l0.2,0c0.1,0,0.1,0,0.2,0c0.2,0,0.4,0.1,0.6,0.1
		c0.2,0.1,0.4,0.1,0.6,0.2c0.1,0,0.1,0,0.2,0.1l0.1,0.1c0.1,0,0.2,0.1,0.3,0.1c0.2,0.1,0.4,0.2,0.5,0.3c0.2,0.1,0.4,0.2,0.5,0.3
		s0.4,0.2,0.5,0.3l0.1,0.1l0.1,0.1c0,0,0.1,0.1,0.1,0.1l0.1,0l0.1,0c0,0,0.1,0.1,0.1,0.1l0.1,0.1c0,0,0.1,0.1,0.1,0.1l0,0l0,0l0,0
		l0,0l0,0l0,0l0.1,0.1c0.1,0.1,0.3,0.3,0.4,0.4c0.1,0.2,0.3,0.3,0.4,0.5c0.1,0.1,0.1,0.2,0.2,0.3c0.1,0.1,0.1,0.2,0.1,0.3
		c0.1,0.2,0.2,0.4,0.2,0.5c0.1,0.2,0.1,0.4,0.2,0.5c0,0.2,0.1,0.4,0.1,0.5l0,0v0l0,0l0,0c-0.2-0.1-0.3-0.3-0.4-0.4
		c-0.1-0.2-0.3-0.3-0.4-0.5s-0.2-0.4-0.3-0.5c-0.1-0.2-0.2-0.4-0.2-0.6s-0.1-0.4-0.2-0.6c0-0.2-0.1-0.4-0.1-0.6c0-0.1,0-0.2,0-0.3
		c0-0.1,0-0.1,0-0.2v-0.2c0-0.2,0-0.4,0-0.6c0-0.2,0-0.4,0.1-0.6c0-0.2,0.1-0.4,0.1-0.6c0.1-0.2,0.1-0.4,0.2-0.6
		c0.1-0.2,0.2-0.4,0.3-0.6c0.1-0.2,0.2-0.4,0.3-0.5c0.1-0.2,0.2-0.4,0.4-0.5c0.3-0.4,0.5-0.7,0.8-1l0,0l0.2-0.2l0.2,0.2
		c0.3,0.3,0.6,0.6,0.8,1c0.1,0.2,0.2,0.4,0.4,0.5c0.1,0,0.2,0.2,0.3,0.4c0.1,0.2,0.2,0.4,0.2,0.6s0.1,0.4,0.2,0.6
		c0.1,0.2,0.1,0.4,0.1,0.6c0,0.2,0.1,0.4,0.1,0.6c0,0.1,0,0.1,0,0.2v0v0v0.1c0,0,0,0.1,0,0.1V27V27l0,0l0,0v0v0.1
		c0,0.2,0,0.4-0.1,0.6c-0.1,0.4-0.2,0.8-0.3,1.2c-0.1,0.2-0.2,0.4-0.2,0.6c-0.1,0.2-0.2,0.4-0.3,0.5c-0.1,0.2-0.2,0.4-0.4,0.5
		c-0.1,0.2-0.3,0.3-0.4,0.5l0,0l0,0v0l0,0c0-0.2,0-0.4,0.1-0.6c0-0.2,0.1-0.4,0.2-0.5c0-0.1,0.1-0.2,0.1-0.3
		c0.1-0.1,0.1-0.2,0.1-0.3c0.1-0.2,0.2-0.4,0.3-0.5c0.1-0.2,0.2-0.3,0.4-0.5c0.1-0.1,0.1-0.2,0.2-0.2c0,0,0.1-0.1,0.1-0.1
		c0,0,0.1-0.1,0.1-0.1l0.1-0.1l0.1-0.1l0,0l0,0l0,0l0,0l0.1-0.1l0.1-0.1c0,0,0,0,0.1-0.1c0,0,0.1-0.1,0.1-0.1
		c0.2-0.1,0.3-0.3,0.5-0.4c0.2-0.1,0.4-0.2,0.5-0.4c0.2-0.1,0.4-0.2,0.5-0.3s0.4-0.2,0.6-0.3c0.2-0.1,0.4-0.2,0.6-0.2
		c0.2-0.1,0.4-0.1,0.6-0.2s0.4-0.1,0.6-0.1c0.2,0,0.4-0.1,0.6-0.1c0.2,0,0.4,0,0.6-0.1l0,0l0.4,0l0,0.4c0,0.2,0,0.4-0.1,0.6
		c0,0.2-0.1,0.4-0.1,0.6c-0.1,0.2-0.1,0.4-0.2,0.6c0,0,0,0.1-0.1,0.1l-0.1,0.1L41.2,28c0,0,0,0.1-0.1,0.1c-0.1,0.2-0.2,0.4-0.3,0.5
		c-0.1,0.2-0.2,0.4-0.3,0.5c-0.1,0.2-0.2,0.4-0.4,0.5c-0.1,0.2-0.3,0.3-0.4,0.5l-0.1,0.1l-0.1,0.1c0,0-0.1,0.1-0.1,0.1
		c0,0-0.1,0.1-0.1,0.1c0,0-0.1,0.1-0.1,0.1l-0.1,0.1l0,0l0,0c0,0-0.1,0.1-0.1,0.1c-0.1,0.1-0.2,0.1-0.3,0.2
		c-0.1,0.1-0.2,0.1-0.3,0.2c-0.1,0.1-0.2,0.1-0.3,0.2c-0.2,0.1-0.4,0.2-0.6,0.3c-0.2,0.1-0.4,0.1-0.6,0.2s-0.4,0.1-0.6,0.1
		c-0.1,0-0.2,0-0.3,0.1c-0.1,0-0.2,0-0.3,0c-0.1,0-0.2,0-0.3,0c0,0-0.1,0-0.1,0h-0.1h-0.1c0,0,0,0,0,0l0,0l0,0l0,0l0,0h0l0,0l0,0
		c0,0,0,0,0.1-0.1c0,0,0,0,0.1-0.1c0,0,0,0,0.1-0.1c0,0,0,0,0.1,0c0,0,0.1-0.1,0.1-0.1c0,0,0,0,0.1,0l0.1,0c0,0,0.1-0.1,0.1-0.1
		s0.1,0,0.1-0.1c0.1,0,0.1,0,0.2-0.1l0.1,0l0.1,0c0.2-0.1,0.4-0.2,0.6-0.2s0.4-0.1,0.6-0.2c0.2,0,0.4-0.1,0.6-0.1s0.4,0,0.6,0
		c0.1,0,0.1,0,0.2,0s0.1,0,0.2,0H39h0h0h0c0.1,0,0.1,0,0.2,0c0.2,0,0.4,0,0.7,0s0.4,0,0.6,0.1c0.2,0,0.4,0.1,0.6,0.1
		c0.2,0,0.4,0.1,0.6,0.2s0.4,0.1,0.6,0.2c0.2,0.1,0.4,0.2,0.6,0.3s0.4,0.2,0.6,0.3c0.4,0.2,0.7,0.4,1.1,0.7h0l0,0l0.3,0.2l-0.3,0.2
		c-0.4,0.3-0.8,0.6-1.3,0.8c-0.4,0.2-0.9,0.4-1.4,0.6c-0.5,0.2-1,0.3-1.5,0.4C40.3,35,40,35,39.8,35c-0.1,0-0.1,0-0.2,0h-0.2h-0.2
		H39h-0.2c-0.1,0-0.1,0-0.2,0s-0.1,0-0.2,0s-0.1,0-0.2,0c-0.3,0-0.5,0-0.7-0.1c-0.5-0.1-1-0.2-1.5-0.4c-0.5-0.2-0.9-0.4-1.4-0.6
		c-0.2-0.1-0.4-0.3-0.6-0.4l0.1,0c0,0-0.1,0-0.1-0.1l-0.1-0.1c0,0-0.1,0-0.1-0.1l-0.1-0.1c0,0-0.1,0-0.1-0.1l-0.2-0.1
		c-0.4-0.3-0.8-0.5-1.2-0.8c-0.4-0.2-0.8-0.4-1.3-0.6c-0.4-0.2-0.9-0.3-1.4-0.4c-0.2,0-0.5-0.1-0.7-0.1h-0.1c0,0-0.1,0-0.1,0h-0.1
		c0,0-0.1,0-0.1,0h-0.1h0c0,0,0,0,0,0h-0.1h-0.1l0,0l0,0l0,0l0,0c-0.3,0-0.5,0-0.7,0c-0.3,0-0.5,0.1-0.7,0.1
		c-0.5,0.1-0.9,0.2-1.4,0.4c-0.4,0.2-0.9,0.4-1.3,0.6c-0.4,0.2-0.8,0.5-1.1,0.8l0,0v-0.4c0.2,0.1,0.3,0.2,0.4,0.4
		c0.2,0.1,0.3,0.2,0.5,0.3c0.2,0.1,0.3,0.2,0.5,0.3c0.2,0.1,0.4,0.2,0.5,0.3c0.2,0.1,0.4,0.2,0.5,0.2s0.4,0.1,0.6,0.2
		c0.2,0.1,0.4,0.1,0.6,0.1c0.2,0,0.4,0.1,0.6,0.1c0.2,0,0.4,0.1,0.6,0.1h0.2c0,0,0.1,0,0.1,0h0.1h0h0l0,0l0,0h0.1c0.1,0,0.1,0,0.2,0
		c0.2,0,0.4,0,0.6,0c0.2,0,0.4,0,0.6-0.1c0.2,0,0.4-0.1,0.6-0.1c0.1,0,0.1,0,0.2,0c0.1,0,0.1,0,0.2,0s0.1,0,0.2,0c0.1,0,0.1,0,0.2,0
		c0.2-0.1,0.4-0.1,0.6-0.2C31.7,34.2,31.9,34.2,32.1,34.1z"/>
	<path class="st1" d="M27.1,38.8"/>
</g>
<g id="g30" transform="matrix(1.9580838,0,0,1.9580838,0,653.9)" inkscape:export-xdpi="103.52721" inkscape:export-ydpi="103.52721">
	<path id="path4" inkscape:connector-curvature="0" class="st2" d="M7.9-302.6c-1.6,0-2.8,1.3-2.8,2.8s1.3,2.8,2.8,2.8
		s2.8-1.3,2.8-2.8S9.5-302.6,7.9-302.6z M7.5-296.9v-0.6c0-0.2-0.1-0.4-0.3-0.5c-0.7-0.3-1.2-1-1.2-1.8c0-1.1,0.9-1.9,1.9-1.9
		s1.9,0.9,1.9,1.9C9.9-298.5,8.9-297.3,7.5-296.9z"/>
	<g id="g28" transform="translate(10.035727,65.232223)">
		<path id="path6" inkscape:connector-curvature="0" class="st3" d="M3.8-366.2c0.7,0,1,0.3,1,0.9v2.1c0,0.1,0,0.1-0.1,0.1H4.6
			c-0.1,0-0.1,0-0.1-0.1l0-0.3c-0.3,0.3-0.7,0.4-1.1,0.4c-0.3,0-0.5-0.1-0.6-0.2c-0.2-0.2-0.2-0.4-0.2-0.6c0-0.3,0.1-0.5,0.3-0.7
			c0.2-0.2,0.5-0.2,0.8-0.2c0.1,0,0.3,0,0.4,0c0.1,0,0.3,0.1,0.4,0.1v-0.5c0-0.2-0.1-0.4-0.2-0.5c-0.1-0.1-0.3-0.2-0.6-0.2
			c-0.2,0-0.5,0-0.8,0.1c0,0-0.1,0-0.1,0s0,0-0.1,0c0,0-0.1,0-0.1-0.1v-0.1c0-0.1,0-0.1,0.1-0.1c0.1-0.1,0.3-0.1,0.5-0.1
			C3.5-366.2,3.7-366.2,3.8-366.2L3.8-366.2z M3.7-364.6c-0.6,0-0.8,0.2-0.8,0.6c0,0.4,0.2,0.6,0.6,0.6c0.1,0,0.3,0,0.5-0.1
			c0.2-0.1,0.3-0.1,0.5-0.3v-0.7C4.3-364.5,4-364.6,3.7-364.6L3.7-364.6z"/>
		<path id="path8" inkscape:connector-curvature="0" class="st3" d="M9.1-366.2c0.3,0,0.5,0.1,0.6,0.2c0.1,0.1,0.2,0.4,0.2,0.7v2.1
			c0,0.1,0,0.1-0.1,0.1H9.6c-0.1,0-0.1,0-0.1-0.1v-1.9c0-0.3,0-0.4-0.1-0.6c-0.1-0.1-0.2-0.2-0.4-0.2c-0.4,0-0.7,0.1-1.1,0.4
			c0,0.1,0,0.2,0,0.3v2c0,0.1,0,0.1-0.1,0.1H7.7c-0.1,0-0.1,0-0.1-0.1v-1.9c0-0.3,0-0.4-0.1-0.6c-0.1-0.1-0.2-0.2-0.4-0.2
			c-0.4,0-0.7,0.1-1,0.4v2.3c0,0.1,0,0.1-0.1,0.1H5.7c-0.1,0-0.1,0-0.1-0.1v-2.8c0-0.1,0-0.1,0.1-0.1h0.1c0.1,0,0.1,0,0.1,0.1l0,0.2
			c0.2-0.1,0.4-0.2,0.6-0.3c0.2-0.1,0.4-0.1,0.6-0.1c0.4,0,0.6,0.1,0.7,0.5c0.2-0.1,0.4-0.3,0.6-0.3C8.6-366.2,8.9-366.2,9.1-366.2
			L9.1-366.2z"/>
		<path id="path10" inkscape:connector-curvature="0" class="st3" d="M11.7-366.2c0.7,0,1,0.3,1,0.9v2.1c0,0.1,0,0.1-0.1,0.1h-0.1
			c-0.1,0-0.1,0-0.1-0.1l0-0.3c-0.3,0.3-0.7,0.4-1.1,0.4c-0.3,0-0.5-0.1-0.6-0.2c-0.2-0.2-0.2-0.4-0.2-0.6c0-0.3,0.1-0.5,0.3-0.7
			c0.2-0.2,0.5-0.2,0.8-0.2c0.1,0,0.3,0,0.4,0c0.1,0,0.3,0.1,0.4,0.1v-0.5c0-0.2-0.1-0.4-0.2-0.5c-0.1-0.1-0.3-0.2-0.6-0.2
			c-0.2,0-0.5,0-0.8,0.1c0,0-0.1,0-0.1,0c0,0,0,0-0.1,0c0,0-0.1,0-0.1-0.1v-0.1c0-0.1,0-0.1,0.1-0.1c0.1-0.1,0.3-0.1,0.5-0.1
			C11.4-366.2,11.6-366.2,11.7-366.2L11.7-366.2z M11.7-364.6c-0.6,0-0.8,0.2-0.8,0.6c0,0.4,0.2,0.6,0.6,0.6c0.1,0,0.3,0,0.5-0.1
			c0.2-0.1,0.3-0.1,0.5-0.3v-0.7C12.2-364.5,11.9-364.6,11.7-364.6z"/>
		<path id="path12" inkscape:connector-curvature="0" class="st3" d="M15.6-363.4v0.1c0,0.1,0,0.1-0.1,0.1h-2.1
			c-0.1,0-0.1,0-0.1-0.1v-0.1c0,0,0-0.1,0-0.1c0,0,0,0,0.1-0.1l1.8-2.3h-1.7c-0.1,0-0.1,0-0.1-0.1v-0.1c0-0.1,0-0.1,0.1-0.1h2
			c0.1,0,0.1,0,0.1,0.1v0.1c0,0,0,0.1,0,0.1c0,0,0,0.1-0.1,0.1l-1.8,2.3L15.6-363.4C15.6-363.4,15.6-363.4,15.6-363.4L15.6-363.4z"
			/>
		<path id="path14" inkscape:connector-curvature="0" class="st3" d="M17.3-363.1c-0.4,0-0.8-0.1-1-0.4c-0.2-0.3-0.4-0.7-0.4-1.2
			s0.1-0.9,0.4-1.2c0.2-0.3,0.6-0.4,1-0.4c0.4,0,0.8,0.1,1,0.4c0.2,0.3,0.4,0.7,0.4,1.2s-0.1,0.9-0.4,1.2
			C18.1-363.2,17.7-363.1,17.3-363.1z M17.3-363.4c0.7,0,1-0.4,1-1.3c0-0.8-0.3-1.3-1-1.3s-1,0.4-1,1.3
			C16.3-363.8,16.6-363.4,17.3-363.4z"/>
		<path id="path16" inkscape:connector-curvature="0" class="st3" d="M20.9-366.2c0.3,0,0.5,0.1,0.7,0.2c0.1,0.1,0.2,0.4,0.2,0.7
			v2.1c0,0.1,0,0.1-0.1,0.1h-0.2c-0.1,0-0.1,0-0.1-0.1v-1.9c0-0.3,0-0.4-0.1-0.6c-0.1-0.1-0.3-0.2-0.5-0.2s-0.4,0-0.6,0.1
			c-0.2,0.1-0.4,0.2-0.6,0.3v2.3c0,0.1,0,0.1-0.1,0.1h-0.2c-0.1,0-0.1,0-0.1-0.1v-2.8c0-0.1,0-0.1,0.1-0.1h0.1c0.1,0,0.1,0,0.1,0.1
			l0,0.3c0.2-0.1,0.4-0.2,0.6-0.3C20.5-366.2,20.7-366.2,20.9-366.2L20.9-366.2z"/>
		<path id="path18" inkscape:connector-curvature="0" class="st3" d="M25.1-366.2c0.7,0,1,0.3,1,0.9v2.1c0,0.1,0,0.1-0.1,0.1h-0.1
			c-0.1,0-0.1,0-0.1-0.1l0-0.3c-0.3,0.3-0.7,0.4-1.1,0.4c-0.3,0-0.5-0.1-0.6-0.2c-0.2-0.2-0.2-0.4-0.2-0.6c0-0.3,0.1-0.5,0.3-0.7
			c0.2-0.2,0.5-0.2,0.8-0.2c0.1,0,0.3,0,0.4,0c0.1,0,0.3,0.1,0.4,0.1v-0.5c0-0.2-0.1-0.4-0.2-0.5c-0.1-0.1-0.3-0.2-0.6-0.2
			c-0.2,0-0.5,0-0.8,0.1c0,0-0.1,0-0.1,0s0,0-0.1,0c0,0-0.1,0-0.1-0.1v-0.1c0-0.1,0-0.1,0.1-0.1c0.1-0.1,0.3-0.1,0.5-0.1
			C24.7-366.2,24.9-366.2,25.1-366.2L25.1-366.2z M25-364.6c-0.6,0-0.8,0.2-0.8,0.6c0,0.4,0.2,0.6,0.6,0.6c0.1,0,0.3,0,0.5-0.1
			c0.2-0.1,0.3-0.1,0.5-0.3v-0.7C25.5-364.5,25.2-364.6,25-364.6z"/>
		<path id="path20" inkscape:connector-curvature="0" class="st3" d="M26.9-367.4C26.9-367.5,26.9-367.5,26.9-367.4l0.2-0.1
			c0.1,0,0.1,0,0.1,0.1v3.8c0,0.1,0,0.1,0,0.2c0,0,0.1,0,0.2,0c0,0,0,0,0.1,0s0,0,0.1,0c0,0,0.1,0,0.1,0.1v0.1c0,0,0,0.1-0.1,0.1
			c0,0-0.1,0-0.1,0c0,0-0.1,0-0.1,0c-0.2,0-0.3,0-0.4-0.1c-0.1-0.1-0.1-0.2-0.1-0.4L26.9-367.4z"/>
		<path id="path22" inkscape:connector-curvature="0" class="st3" d="M30.1-363.5c0,0,0.1,0,0.1,0c0,0,0,0,0.1,0c0,0,0.1,0,0.1,0.1
			v0.1c0,0.1,0,0.1-0.1,0.1c-0.3,0.1-0.6,0.2-0.9,0.2c-0.5,0-0.8-0.1-1-0.4c-0.2-0.3-0.4-0.6-0.4-1.1c0-0.2,0-0.5,0.1-0.7
			s0.2-0.4,0.3-0.5c0.1-0.1,0.3-0.2,0.4-0.3c0.2-0.1,0.4-0.1,0.6-0.1c0.3,0,0.6,0.1,0.8,0.2c0.2,0.2,0.3,0.4,0.3,0.7
			c0,0.3-0.1,0.5-0.3,0.6c-0.2,0.1-0.5,0.2-0.9,0.2c-0.1,0-0.3,0-0.5,0c-0.1,0-0.3,0-0.5-0.1c0,0.4,0.1,0.7,0.3,0.9s0.4,0.3,0.8,0.3
			C29.7-363.4,29.9-363.4,30.1-363.5L30.1-363.5z M29.4-365.9c-0.3,0-0.5,0.1-0.7,0.3c-0.2,0.2-0.3,0.4-0.3,0.8
			c0.1,0,0.3,0.1,0.5,0.1c0.1,0,0.3,0,0.5,0c0.3,0,0.5,0,0.7-0.1c0.1-0.1,0.2-0.2,0.2-0.4C30.1-365.7,29.9-365.9,29.4-365.9z"/>
		<path id="path24" inkscape:connector-curvature="0" class="st3" d="M32.1-364.5l-0.9,1.2c0,0-0.1,0.1-0.1,0.1H31
			c0,0-0.1,0-0.1-0.1c0,0,0,0,0-0.1l1-1.4L31-366c0,0,0-0.1,0-0.1c0,0,0-0.1,0.1-0.1h0.2c0,0,0.1,0,0.1,0.1l0.8,1.1l0.8-1.1
			c0,0,0.1-0.1,0.1-0.1h0.2c0,0,0.1,0,0.1,0.1c0,0,0,0,0,0.1l-0.9,1.3l1,1.4c0,0,0,0.1,0,0.1c0,0,0,0.1-0.1,0.1h-0.2
			c0,0-0.1,0-0.1-0.1L32.1-364.5z"/>
		<path id="path26" inkscape:connector-curvature="0" class="st3" d="M34.9-366.2c0.7,0,1,0.3,1,0.9v2.1c0,0.1,0,0.1-0.1,0.1h-0.1
			c-0.1,0-0.1,0-0.1-0.1l0-0.3c-0.3,0.3-0.7,0.4-1.1,0.4c-0.3,0-0.5-0.1-0.6-0.2c-0.2-0.2-0.2-0.4-0.2-0.6c0-0.3,0.1-0.5,0.3-0.7
			c0.2-0.2,0.5-0.2,0.8-0.2c0.1,0,0.3,0,0.4,0c0.1,0,0.3,0.1,0.4,0.1v-0.5c0-0.2-0.1-0.4-0.2-0.5c-0.1-0.1-0.3-0.2-0.6-0.2
			c-0.2,0-0.5,0-0.8,0.1c0,0-0.1,0-0.1,0c0,0,0,0-0.1,0c0,0-0.1,0-0.1-0.1v-0.1c0-0.1,0-0.1,0.1-0.1c0.1-0.1,0.3-0.1,0.5-0.1
			C34.6-366.2,34.7-366.2,34.9-366.2L34.9-366.2z M34.8-364.6c-0.6,0-0.8,0.2-0.8,0.6c0,0.4,0.2,0.6,0.6,0.6c0.1,0,0.3,0,0.5-0.1
			c0.2-0.1,0.3-0.1,0.5-0.3v-0.7C35.3-364.5,35.1-364.6,34.8-364.6L34.8-364.6z"/>
	</g>
</g>
</svg>
