<svg id="event_black_24dp" xmlns="http://www.w3.org/2000/svg" width="14" height="14" viewBox="0 0 14 14">
  <path id="Path_21592" data-name="Path 21592" d="M0,0H14V14H0Z" fill="none"/>
  <path id="Path_21593" data-name="Path 21593" d="M11.333,7.495H8.357v2.952h2.976ZM10.738,1V2.181H5.976V1H4.786V2.181h-.6A1.18,1.18,0,0,0,3.006,3.362L3,11.628a1.185,1.185,0,0,0,1.19,1.181h8.333a1.189,1.189,0,0,0,1.19-1.181V3.362a1.189,1.189,0,0,0-1.19-1.181h-.6V1Zm1.786,10.628H4.19V5.133h8.333Z" transform="translate(-1.357 -0.452)" fill="#202020"/>
</svg>
