<svg id="language_black_24dp" xmlns="http://www.w3.org/2000/svg" width="14" height="14" viewBox="0 0 14 14">
  <path id="Path_21601" data-name="Path 21601" d="M0,0H14V14H0Z" fill="none"/>
  <path id="Path_21602" data-name="Path 21602" d="M7.768,2a5.773,5.773,0,1,0,5.779,5.773A5.77,5.77,0,0,0,7.768,2Zm4,3.464h-1.7a9.035,9.035,0,0,0-.8-2.055A4.636,4.636,0,0,1,11.768,5.464Zm-4-2.286a8.133,8.133,0,0,1,1.1,2.286H6.671A8.133,8.133,0,0,1,7.773,3.178ZM3.3,8.928a4.516,4.516,0,0,1,0-2.309H5.256a9.535,9.535,0,0,0-.081,1.155,9.535,9.535,0,0,0,.081,1.155Zm.473,1.155h1.7a9.035,9.035,0,0,0,.8,2.055,4.611,4.611,0,0,1-2.5-2.055Zm1.7-4.619h-1.7a4.611,4.611,0,0,1,2.5-2.055,9.035,9.035,0,0,0-.8,2.055Zm2.292,6.9a8.133,8.133,0,0,1-1.1-2.286H8.876A8.133,8.133,0,0,1,7.773,12.369ZM9.124,8.928h-2.7A8.494,8.494,0,0,1,6.33,7.773a8.42,8.42,0,0,1,.092-1.155h2.7a8.42,8.42,0,0,1,.092,1.155A8.494,8.494,0,0,1,9.124,8.928Zm.144,3.21a9.035,9.035,0,0,0,.8-2.055h1.7A4.636,4.636,0,0,1,9.269,12.138Zm1.022-3.21a9.535,9.535,0,0,0,.081-1.155,9.535,9.535,0,0,0-.081-1.155h1.951a4.516,4.516,0,0,1,0,2.309Z" transform="translate(-0.773 -0.773)" fill="#202020"/>
</svg>
