<svg xmlns="http://www.w3.org/2000/svg" width="14.005" height="14.005" viewBox="0 0 14.005 14.005">
  <g id="tips_and_updates_black_24dp" transform="translate(-0.005)">
    <rect id="Rectangle_2309" data-name="Rectangle 2309" width="14" height="14" transform="translate(0.005 0.005)" fill="none"/>
    <path id="Path_21587" data-name="Path 21587" d="M4.71,11.674H7.045a1.167,1.167,0,0,1-2.335,0Zm-1.167-.584h4.67V9.923H3.543Zm6.713-5.545a4.4,4.4,0,0,1-2.2,3.794H3.7a4.376,4.376,0,1,1,6.555-3.794ZM13.1,4.3l-.8.368.8.368.368.8.368-.8.8-.368-.8-.368-.368-.8Zm-1.383-.8.549-1.2,1.2-.549-1.2-.549L11.715,0l-.549,1.2-1.2.549,1.2.549Z" transform="translate(-0.624)" fill="#02708e"/>
  </g>
</svg>
